<svg xmlns="http://www.w3.org/2000/svg" width="49" height="35" viewBox="0 0 49 35">
  <g fill="none" fill-rule="evenodd">
    <rect width="47" height="33" fill="#4A4A4A" rx="2" transform="translate(1 1)"/>
    <rect width="6" height="6" x="37" y="5" fill="#18A9E0"/>
    <rect width="6" height="6" x="37" y="14" fill="#D8D8D8"/>
    <rect width="6" height="6" x="37" y="23" fill="#18A9E0"/>
    <g fill-rule="nonzero" transform="rotate(-180 15 15)">
      <path fill="#EFC75E" d="M23.380516,19.4897687 C23.2349644,19.3558719 21.7992883,19.4484875 21.7992883,19.4484875 L21.7829181,17.9295374 L21.080694,17.1268683 L19.4161922,17.0996441 L19.4145907,17.097331 L19.4145907,17.097331 C19.4075623,17.1199288 19.41379,15.4266014 19.41379,15.4266014 L18.6368327,14.8637011 C18.6368327,14.8637011 17.1257117,14.819306 17.1132562,14.8076512 L16.9918149,13.2552491 L15.5927936,11.5992883 C16.0762456,10.5560498 16.3549822,9.39679715 16.3549822,8.1705516 C16.3549822,3.6588968 12.6942171,0.0012455516 8.17873665,0.0012455516 C3.66076512,0.000355871886 0,3.65800712 0,8.16966192 C0,12.6821174 3.66076512,16.3404804 8.17704626,16.3404804 C9.4297153,16.3404804 10.6123665,16.050089 11.6734875,15.5463523 L20.9732206,24.9021352 C20.9732206,24.9021352 24.9103203,24.9129893 24.9103203,24.9114769 L24.916548,20.9378114 C24.916548,20.9378114 24.2983986,20.3352313 23.380516,19.4897687 Z M6.61690391,8.57455516 C5.54644128,8.57455516 4.67909253,7.70177936 4.67909253,6.62508897 C4.67909253,5.54839858 5.54635231,4.67482206 6.61690391,4.67482206 C7.68745552,4.67482206 8.55551601,5.54830961 8.55551601,6.62508897 C8.55551601,7.70186833 7.68736655,8.57455516 6.61690391,8.57455516 Z"/>
      <path fill="#CA9F30" d="M6.61841637 3.89386121C5.11352313 3.89386121 3.89350534 5.113879 3.89350534 6.61877224 3.89350534 8.12366548 5.11352313 9.34368327 6.61841637 9.34368327 8.12411032 9.34368327 9.3433274 8.12366548 9.3433274 6.61877224 9.3433274 5.113879 8.12411032 3.89386121 6.61841637 3.89386121zM6.61841637 7.7866548C5.97375445 7.7866548 5.45062278 7.26343416 5.45062278 6.61886121 5.45062278 5.97348754 5.97384342 5.45106762 6.61841637 5.45106762 7.26307829 5.45106762 7.78620996 5.97348754 7.78620996 6.61886121 7.78620996 7.26343416 7.26307829 7.7866548 6.61841637 7.7866548zM13.544395 14.3248221C12.8008897 14.9725979 11.9405694 15.4840747 10.9977758 15.8321174L20.2429715 24.9153915 24.1356762 24.9153915 13.544395 14.3248221z"/>
    </g>
  </g>
</svg>
