<svg xmlns="http://www.w3.org/2000/svg" width="43" height="37" viewBox="0 0 43 37">
  <g fill="#86138A">
    <path d="M39.2311735 3.93210095L37.4281707 2.40471388C36.8730175 1.93386523 36.0544542 1.95683346 35.5279202 2.45639239L34.5319758 3.39234763C33.6906317 2.9846616 32.797716 2.69755877 31.876124 2.53103912L31.5957714 1.15294552C31.4526759.44093049 30.7944368-.0528863848 30.0731212.00453418202L27.7206319.205506166C26.9994307.26866879 26.4327727.860100628 26.4098774 1.58934183L26.3641441 2.99040366C25.4597236 3.31770089 24.6068746 3.76558131 23.8284353 4.32830287L22.6379384 3.53589904C22.0310991 3.13395508 21.224098 3.24879621 20.7548021 3.80577571L19.2322664 5.62600768C18.762856 6.18298718 18.7857513 7.00410128 19.2836663 7.5323705L20.3254585 8.64627207C19.9648007 9.46164412 19.7072288 10.317268 19.5584668 11.1957452L18.070274 11.5000742C17.3605205 11.6436257 16.8682722 12.3039622 16.9255103 13.0275187L17.125844 15.387504C17.188806 16.1110032 17.7783593 16.6794668 18.5052842 16.702435L20.1136772 16.7540561C20.4057064 17.5234917 20.789145 18.2527903 21.2527171 18.9360377L20.3541348 20.2969051C19.9534675 20.9055631 20.0679439 21.7151931 20.623097 22.1860417L22.4260998 23.7134288C22.9813675 24.1842775 23.7998163 24.1613092 24.3264648 23.6617503L25.5055714 22.5535334C26.2782869 22.9152829 27.0910118 23.1851596 27.9266893 23.3459372L28.2530042 24.9651972C28.3960997 25.6772122 29.0543388 26.1710291 29.7755399 26.1136085L32.1280293 25.9126365C32.8492304 25.8494739 33.4158884 25.2580995 33.4387837 24.5288009L33.4902981 22.9439358C34.3488708 22.6396068 35.1615958 22.2261787 35.911416 21.7151931L37.21078 22.5765016C37.8175048 22.9784456 38.6245059 22.8636044 39.0939163 22.3066249L40.616452 20.4978771C41.0857479 19.9408976 41.0628526 19.1197835 40.5649376 18.5915143L39.5174216 17.4776127C39.9009747 16.6622406 40.181499 15.8009321 40.3416515 14.916598L41.7726061 14.6237531C42.4823596 14.4802017 42.9746079 13.8198651 42.9173698 13.0963086L42.7170361 10.7363233C42.6540741 10.0128241 42.0645208 9.44436053 41.3375959 9.42139231L39.9009175 9.37545585C39.6032217 8.53711558 39.2025544 7.74476917 38.7046394 7.0097285L39.4887453 5.82686482C39.9009175 5.21832165 39.7864411 4.4029496 39.2311735 3.93210095zM30.3650932 17.5751702C27.8237178 17.7934258 25.5798665 15.8927476 25.3681425 13.3433319 25.1505802 10.7938587 27.0452785 8.54291505 29.5865394 8.33045896 32.1279148 8.1122608 34.3717661 10.012939 34.5834901 12.5623547 34.8010525 15.1118853 32.9063541 17.3627715 30.3650932 17.5751702zM1.29948607 23.9259423C.578284945 24.0005891.0230745592 24.6091897.0173507408 25.3384883L.000179285546 26.7912286C-.0112683513 27.5204698.52677058 28.1406119 1.2479717 28.2325423L2.31260192 28.3702942C2.4900403 29.019204 2.74188831 29.6393462 3.06814596 30.2250359L2.38128775 31.0748603C1.92338227 31.6432665 1.95772518 32.458696 2.46714502 32.9812231L3.48026088 34.0205354C3.98968072 34.5430626 4.80246294 34.6004831 5.3805686 34.1526027L6.2333603 33.4922662C6.83436123 33.8482737 7.46976232 34.1296919 8.13366801 34.3248644L8.24814438 35.4273393C8.32255402 36.1508384 8.92927877 36.7078179 9.65620371 36.71356L11.104387 36.7307862C11.8312547 36.7422703 12.4494843 36.2025169 12.5410654 35.4790178L12.6727133 34.4339635C13.3939716 34.2559023 14.0808298 33.9860831 14.7332879 33.6300756L15.5346225 34.278928C16.1012805 34.7382925 16.9141199 34.7038402 17.4349874 34.1927971L18.4709985 33.1764531C18.991866 32.6654675 19.0491042 31.850038 18.6027036 31.2700903L17.9901406 30.471887C18.3679126 29.8402607 18.6598846 29.1684401 18.8602182 28.4621671L19.8103721 28.3645522C20.5315732 28.2899054 21.0867263 27.6812474 21.0925074 26.9520062L21.1096216 25.4992084C21.1211265 24.7700247 20.5830875 24.1498251 19.8618864 24.0579522L18.9345706 23.937369C18.7571322 23.2368381 18.4938938 22.5592754 18.1504647 21.9276492L18.7285704 21.2156342C19.1864758 20.6471705 19.1521329 19.8317985 18.6427131 19.3092713L17.6296545 18.2699591C17.1202346 17.7473745 16.3073379 17.6899539 15.7292895 18.1378918L15.0366503 18.671903C14.3841922 18.2757011 13.6858291 17.9713721 12.9532376 17.7646581L12.8615993 16.8631552C12.7871896 16.1395986 12.1805221 15.5826765 11.4535399 15.5769345L10.0054139 15.5597083C9.27848894 15.5482242 8.66031655 16.0879775 8.56867821 16.8114767L8.45420185 17.7072949C7.69871505 17.9024675 6.97179011 18.2011118 6.29637954 18.5915143L5.58090224 18.0058245C5.01424422 17.5464599 4.20140476 17.5809697 3.68053729 18.0919553L2.63880234 19.1140988C2.11793486 19.6250845 2.06069668 20.4405139 2.50715451 21.0204042L3.11960308 21.8128655C2.76472634 22.4444917 2.48425924 23.1162549 2.30109705 23.8225853L1.29948607 23.9259423zM10.6464815 22.2836567C12.7242276 22.3066249 14.3898015 24.0235573 14.3669635 26.1079239 14.3440682 28.1922905 12.6325893 29.8631715 10.5548432 29.8402607 8.47709712 29.8172925 6.8115232 28.1004175 6.83436123 26.0159935 6.85731375 23.9316844 8.56873545 22.2607459 10.6464815 22.2836567z"/>
  </g>
</svg>
