<svg xmlns="http://www.w3.org/2000/svg" width="133" height="33" viewBox="0 0 133 33">
  <path fill="#86138A" d="M71.46,19.13 C71.2399989,18.8099984 70.930002,18.5450011 70.53,18.335 C70.129998,18.1249989 69.7000023,18.02 69.24,18.02 C68.0999943,18.02 67.2150032,18.3599966 66.585,19.04 C65.9549969,19.7200034 65.64,20.6099945 65.64,21.71 C65.64,22.8100055 65.9549969,23.6999966 66.585,24.38 C67.2150032,25.0600034 68.0999943,25.4 69.24,25.4 C69.7400025,25.4 70.1699982,25.2900011 70.53,25.07 C70.8900018,24.8499989 71.1999987,24.5900015 71.46,24.29 L74.43,27.41 C73.7299965,28.1300036 72.9050047,28.6349986 71.955,28.925 C71.0049952,29.2150015 70.1000043,29.36 69.24,29.36 C68.1199944,29.36 67.065005,29.1800018 66.075,28.82 C65.0849951,28.4599982 64.2250036,27.9450033 63.495,27.275 C62.7649963,26.6049966 62.1900021,25.8000047 61.77,24.86 C61.3499979,23.9199953 61.14,22.8700058 61.14,21.71 C61.14,20.5499942 61.3499979,19.5000047 61.77,18.56 C62.1900021,17.6199953 62.7649963,16.8150034 63.495,16.145 C64.2250036,15.4749967 65.0849951,14.9600018 66.075,14.6 C67.065005,14.2399982 68.1199944,14.06 69.24,14.06 C70.1000043,14.06 71.0049952,14.2049986 71.955,14.495 C72.9050047,14.7850014 73.7299965,15.2899964 74.43,16.01 L71.46,19.13 Z M80.55,6.32 L80.55,16.4 L80.61,16.4 C80.7100005,16.1199986 80.8799988,15.8400014 81.12,15.56 C81.3600012,15.2799986 81.6499983,15.0300011 81.99,14.81 C82.3300017,14.5899989 82.7299977,14.4100007 83.19,14.27 C83.6500023,14.1299993 84.1499973,14.06 84.69,14.06 C85.8300057,14.06 86.7499965,14.2349982 87.45,14.585 C88.1500035,14.9350018 88.694998,15.4199969 89.085,16.04 C89.475002,16.6600031 89.7399993,17.3899958 89.88,18.23 C90.0200007,19.0700042 90.09,19.9799951 90.09,20.96 L90.09,29 L85.59,29 L85.59,21.86 C85.59,21.4399979 85.5750002,21.0050022 85.545,20.555 C85.5149999,20.1049977 85.4250007,19.6900019 85.275,19.31 C85.1249993,18.9299981 84.8950015,18.6200012 84.585,18.38 C84.2749985,18.1399988 83.8300029,18.02 83.25,18.02 C82.6699971,18.02 82.2000018,18.1249989 81.84,18.335 C81.4799982,18.5450011 81.2050009,18.8249982 81.015,19.175 C80.824999,19.5250018 80.7000003,19.9199978 80.64,20.36 C80.5799997,20.8000022 80.55,21.2599976 80.55,21.74 L80.55,29 L76.05,29 L76.05,6.32 L80.55,6.32 Z M93.33,14.42 L97.83,14.42 L97.83,29 L93.33,29 L93.33,14.42 Z M92.97,9.83 C92.97,9.1099964 93.2249975,8.49500255 93.735,7.985 C94.2450026,7.47499745 94.8599964,7.22 95.58,7.22 C96.3000036,7.22 96.9149975,7.47499745 97.425,7.985 C97.9350025,8.49500255 98.19,9.1099964 98.19,9.83 C98.19,10.5500036 97.9350025,11.1649975 97.425,11.675 C96.9149975,12.1850026 96.3000036,12.44 95.58,12.44 C94.8599964,12.44 94.2450026,12.1850026 93.735,11.675 C93.2249975,11.1649975 92.97,10.5500036 92.97,9.83 Z M101.07,14.42 L105.39,14.42 L105.39,16.4 L105.45,16.4 C105.590001,16.1199986 105.789999,15.8400014 106.05,15.56 C106.310001,15.2799986 106.619998,15.0300011 106.98,14.81 C107.340002,14.5899989 107.749998,14.4100007 108.21,14.27 C108.670002,14.1299993 109.169997,14.06 109.71,14.06 C110.850006,14.06 111.769997,14.2349982 112.47,14.585 C113.170003,14.9350018 113.714998,15.4199969 114.105,16.04 C114.495002,16.6600031 114.759999,17.3899958 114.9,18.23 C115.040001,19.0700042 115.11,19.9799951 115.11,20.96 L115.11,29 L110.61,29 L110.61,21.86 C110.61,21.4399979 110.595,21.0050022 110.565,20.555 C110.535,20.1049977 110.445001,19.6900019 110.295,19.31 C110.144999,18.9299981 109.915002,18.6200012 109.605,18.38 C109.294998,18.1399988 108.850003,18.02 108.27,18.02 C107.689997,18.02 107.220002,18.1249989 106.86,18.335 C106.499998,18.5450011 106.225001,18.8249982 106.035,19.175 C105.844999,19.5250018 105.72,19.9199978 105.66,20.36 C105.6,20.8000022 105.57,21.2599976 105.57,21.74 L105.57,29 L101.07,29 L101.07,14.42 Z M132.09,26.48 C131.369996,27.4000046 130.460006,28.1099975 129.36,28.61 C128.259995,29.1100025 127.120006,29.36 125.94,29.36 C124.819994,29.36 123.765005,29.1800018 122.775,28.82 C121.784995,28.4599982 120.925004,27.9450033 120.195,27.275 C119.464996,26.6049966 118.890002,25.8000047 118.47,24.86 C118.049998,23.9199953 117.84,22.8700058 117.84,21.71 C117.84,20.5499942 118.049998,19.5000047 118.47,18.56 C118.890002,17.6199953 119.464996,16.8150034 120.195,16.145 C120.925004,15.4749967 121.784995,14.9600018 122.775,14.6 C123.765005,14.2399982 124.819994,14.06 125.94,14.06 C126.980005,14.06 127.924996,14.2399982 128.775,14.6 C129.625004,14.9600018 130.344997,15.4749967 130.935,16.145 C131.525003,16.8150034 131.979998,17.6199953 132.3,18.56 C132.620002,19.5000047 132.78,20.5499942 132.78,21.71 L132.78,23.12 L122.34,23.12 C122.520001,23.9800043 122.909997,24.6649975 123.51,25.175 C124.110003,25.6850026 124.849996,25.94 125.73,25.94 C126.470004,25.94 127.094997,25.7750016 127.605,25.445 C128.115003,25.1149983 128.559998,24.6900026 128.94,24.17 L132.09,26.48 Z M128.28,19.06 C128.3,18.2999962 128.050003,17.6500027 127.53,17.11 C127.009997,16.5699973 126.340004,16.3 125.52,16.3 C125.019998,16.3 124.580002,16.3799992 124.2,16.54 C123.819998,16.7000008 123.495001,16.9049988 123.225,17.155 C122.954999,17.4050012 122.745001,17.6949984 122.595,18.025 C122.444999,18.3550017 122.36,18.6999982 122.34,19.06 L128.28,19.06 Z M34.2795351,22.0366612 C34.2795351,18.9033944 32.4232426,16.756166 29.3665476,16.756166 C26.3098526,16.756166 24.4473724,18.8969073 24.4473724,22.0561224 C24.4473724,25.2153376 26.303665,27.3366176 29.3665476,27.3366176 C32.4603685,27.3171564 34.2795351,25.169928 34.2795351,22.0366612 Z M18.7918679,0 L24.9361961,0 L24.9361961,13.8304862 L25.0166355,13.8304862 C26.4088549,11.8129997 28.7910969,11.0864451 31.32803,11.0864451 C36.9835346,11.0864451 40.4238634,16.4123499 40.4238634,22.2118127 C40.4238634,28.5432173 36.5070862,32.9868773 30.6350142,32.9868773 C28.2281591,32.9635272 25.9695674,31.7639846 24.5278118,29.7433298 L24.4473724,29.7433298 L24.4473724,32.5003451 L18.7918679,32.5003451 L18.7918679,0 Z M7.83355442,18.1638655 C5.58744048,18.1638655 4.05290533,19.6104877 4.05290533,22.0561224 C4.05290533,24.5017572 5.56887755,25.9483794 7.83355442,25.9483794 C10.0982313,25.9483794 11.6142035,24.5017572 11.6142035,22.0561224 C11.6142035,19.6364361 10.0796684,18.1638655 7.83355442,18.1638655 Z M7.83355442,13.3569283 C12.573288,13.3569283 15.6732965,17.2491852 15.6732965,22.0561224 C15.6732965,26.8630597 12.5794756,30.7553166 7.83355442,30.7553166 C3.08763322,30.7553166 0,26.9149565 0,22.0561224 C0,17.2232368 3.09382086,13.3569283 7.83355442,13.3569283 Z M52.0751927,20.3629907 C52.0751927,21.8420483 52.1989456,25.1310054 54.2284921,25.1310054 C55.3298923,25.1310054 55.8558418,23.9049445 55.8558418,22.847548 C55.8558418,20.9468292 54.902945,19.1758523 53.0528401,19.1758523 L52.0751927,19.1758523 L52.0751927,20.3629907 Z M56.7406746,19.2018007 L56.7406746,19.2666717 C58.3432738,20.3305552 58.9867885,22.2637095 58.9867885,24.2357863 C58.9867885,27.1614661 57.390377,29.8082008 54.3769955,29.8082008 C49.2103146,29.8082008 49.1236876,23.2367737 49.1236876,19.2082878 C47.4901502,19.2082878 46.4506264,20.6289616 46.4506264,22.296145 C46.4759391,23.8200082 47.1389018,25.2551736 48.2636054,26.2208373 L45.7452353,28.8156753 C44.1321019,26.9169941 43.2634331,24.4490441 43.3134921,21.9069193 C43.3134921,16.2696339 46.0484297,14.7711149 51.0232937,14.7711149 L58.61553,14.7711149 L58.61553,19.2018007 L56.7406746,19.2018007 Z"/>
</svg>
