<svg xmlns="http://www.w3.org/2000/svg" width="59" height="33" viewBox="0 0 59 33">
  <path fill="#86138A" d="M29.3665476,27.3171564 C32.4603685,27.3171564 34.2795351,25.169928 34.2795351,22.0366612 C34.2795351,18.9033944 32.4232426,16.756166 29.3665476,16.756166 C26.3098526,16.756166 24.4473724,18.8969073 24.4473724,22.0561224 C24.4473724,25.2153376 26.303665,27.3366176 29.3665476,27.3366176 L29.3665476,27.3171564 Z M18.7918679,0 L24.9361961,0 L24.9361961,13.8304862 L25.0166355,13.8304862 C26.4088549,11.8129997 28.7910969,11.0864451 31.32803,11.0864451 C36.9835346,11.0864451 40.4238634,16.4123499 40.4238634,22.2118127 C40.4238634,28.5432173 36.5070862,32.9868773 30.6350142,32.9868773 C28.2281591,32.9635272 25.9695674,31.7639846 24.5278118,29.7433298 L24.4473724,29.7433298 L24.4473724,32.5003451 L18.7918679,32.5003451 L18.7918679,0 Z M11.6142035,22.0561224 C11.6142035,19.6364361 10.0796684,18.1638655 7.83355442,18.1638655 C5.58744048,18.1638655 4.05290533,19.6104877 4.05290533,22.0561224 C4.05290533,24.5017572 5.56887755,25.9483794 7.83355442,25.9483794 C10.0982313,25.9483794 11.6142035,24.5017572 11.6142035,22.0561224 L11.6142035,22.0561224 Z M0,22.0561224 C0,17.2232368 3.09382086,13.3569283 7.83355442,13.3569283 C12.573288,13.3569283 15.6732965,17.2491852 15.6732965,22.0561224 C15.6732965,26.8630597 12.5794756,30.7553166 7.83355442,30.7553166 C3.08763322,30.7553166 0,26.9149565 0,22.0561224 L0,22.0561224 Z M52.0751927,20.3629907 C52.0751927,21.8420483 52.1989456,25.1310054 54.2284921,25.1310054 C55.3298923,25.1310054 55.8558418,23.9049445 55.8558418,22.847548 C55.8558418,20.9468292 54.902945,19.1758523 53.0528401,19.1758523 L52.0751927,19.1758523 L52.0751927,20.3629907 Z M56.7406746,19.2018007 L56.7406746,19.2666717 C58.3432738,20.3305552 58.9867885,22.2637095 58.9867885,24.2357863 C58.9867885,27.1614661 57.390377,29.8082008 54.3769955,29.8082008 C49.2103146,29.8082008 49.1236876,23.2367737 49.1236876,19.2082878 C47.4901502,19.2082878 46.4506264,20.6289616 46.4506264,22.296145 C46.4759391,23.8200082 47.1389018,25.2551736 48.2636054,26.2208373 L45.7452353,28.8156753 C44.1321019,26.9169941 43.2634331,24.4490441 43.3134921,21.9069193 C43.3134921,16.2696339 46.0484297,14.7711149 51.0232937,14.7711149 L58.61553,14.7711149 L58.61553,19.2018007 L56.7406746,19.2018007 Z"/>
</svg>
