<svg xmlns="http://www.w3.org/2000/svg" width="33" height="33" viewBox="0 0 33 33">
  <g fill="#231F20">
    <path d="M16.4679006,6.98081871 C13.9379649,6.98081871 11.5553392,7.96708772 9.75796491,9.75905848 C7.96708772,11.5554678 6.98081871,13.9379649 6.98081871,16.4679006 C6.98081871,18.9978363 7.96708772,21.3803333 9.75912281,23.1779006 C11.5553392,24.9687135 13.9379649,25.9549825 16.4679649,25.9549825 C18.9979649,25.9549825 21.380462,24.9687135 23.1777719,23.1767427 C24.9686491,21.3803333 25.9549181,18.9978363 25.9549181,16.4679006 C25.9549181,13.9379649 24.9686491,11.5554678 23.176614,9.75796491 C21.3803333,7.96708772 18.9978363,6.98081871 16.4679006,6.98081871 Z M16.9795614,8.01990058 C18.8757427,8.13253801 20.6557485,8.86966667 22.0802164,10.1318363 L18.9124737,13.2995789 C18.3495439,12.8633743 17.6862632,12.5886959 16.9795614,12.4990877 L16.9795614,8.01990058 L16.9795614,8.01990058 Z M15.9562398,8.01996491 L15.9562398,12.499152 C15.249538,12.5888246 14.5863216,12.8634386 14.0232632,13.2996433 L10.8555848,10.1319649 C12.2807602,8.86947368 14.0604444,8.13253801 15.9562398,8.01996491 Z M10.1318363,10.8555205 L13.2995789,14.0232632 C12.8633743,14.5862573 12.5886959,15.249538 12.4990877,15.9562398 L8.01983626,15.9562398 C8.13253801,14.0601228 8.86960234,12.2800526 10.1318363,10.8555205 Z M8.01996491,16.9794971 L12.4992164,16.9794971 C12.5888889,17.6861988 12.8635029,18.3494152 13.2997076,18.9124737 L10.1320292,22.080152 C8.86940936,20.6549123 8.13253801,18.8751637 8.01996491,16.9794971 Z M15.9562398,24.9157719 C14.0600585,24.8031345 12.2800526,24.0660058 10.8555205,22.8038363 L14.0232632,19.6360936 C14.5862573,20.0722982 15.249538,20.3469766 15.9562398,20.4365848 L15.9562398,24.9157719 L15.9562398,24.9157719 Z M14.3614327,18.5742398 C13.7988889,18.0117602 13.4890877,17.2636316 13.4890877,16.4678363 C13.4890877,15.6720409 13.7988889,14.9239123 14.3614327,14.3614327 C14.9239766,13.7988246 15.6721053,13.4890234 16.4679006,13.4890234 C17.2637602,13.4890234 18.0118246,13.7988246 18.5743041,14.3614327 C19.136848,14.9239123 19.4466491,15.6720409 19.4466491,16.4678363 C19.4466491,17.2636316 19.136848,18.0117602 18.5743041,18.5743041 C18.0118246,19.136848 17.2637602,19.4466491 16.4679006,19.4466491 C15.6721053,19.4466491 14.9239766,19.136848 14.3614327,18.5742398 Z M16.9795614,24.9157719 L16.9795614,20.4365848 C17.6862632,20.3469123 18.3494795,20.0722982 18.9124737,19.6361579 L22.080152,22.8038363 C20.6550409,24.0662632 18.8752924,24.8031345 16.9795614,24.9157719 Z M22.8038363,22.0802164 L19.6360936,18.9124737 C20.0722982,18.3494795 20.3469766,17.6861988 20.4365848,16.9794971 L24.9158363,16.9794971 C24.8031345,18.8756784 24.0660702,20.6556842 22.8038363,22.0802164 Z M20.4365848,15.9562398 C20.3469123,15.249538 20.0722982,14.5863216 19.6360936,14.0232632 L22.8037719,10.8555848 C24.0662632,12.2808246 24.8031988,14.0605088 24.9158363,15.9562398 L20.4365848,15.9562398 Z"/>
    <path d="M16.4679006,17.4521111 C15.9252339,17.4521111 15.4836257,17.0105029 15.4836257,16.4678363 C15.4836257,15.9251696 15.9252339,15.4835614 16.4679006,15.4835614 L16.4679006,14.4601754 C15.3608889,14.4601754 14.4603041,15.3607602 14.4603041,16.4677719 C14.4603041,17.5747836 15.3608889,18.4753684 16.4679006,18.4753684 C17.574848,18.4753684 18.4754327,17.5747836 18.4754327,16.4677719 L17.4521111,16.4677719 C17.4520468,17.0105673 17.0106316,17.4521111 16.4679006,17.4521111 Z"/>
    <rect width="1" height="1.023" x="15.969" y="5.485"/>
    <rect width="1" height="1.023" x="15.969" y="26.427"/>
    <rect width="1" height="1.023" x="26.44" y="15.956"/>
    <rect width="1" height="1.023" x="5.498" y="15.956"/>
    <path d="M31.4267427,14.9589064 L29.432269,14.9589064 C29.2349766,14.9589064 29.0444386,14.9968596 28.8682456,15.0681345 C28.6051462,12.7101462 27.6796667,10.490655 26.1846959,8.64059649 C26.410807,8.5704152 26.6236667,8.44684211 26.8023041,8.26820468 L28.2134561,6.85711696 C28.8019883,6.26852047 28.8019883,5.31087719 28.2133918,4.72221637 C27.9270058,4.43595906 27.5488246,4.2782924 27.1485789,4.2782924 C26.745117,4.2782924 26.3651988,4.43595906 26.0786842,4.72234503 L24.6675322,6.13349708 C24.4888947,6.31219883 24.3652573,6.52505848 24.295076,6.75116959 C22.4497778,5.26095906 20.2295789,4.33245614 17.8660585,4.07012865 C17.9372047,3.89509357 17.9768304,3.70391228 17.9768304,3.50359649 L17.9768304,1.50892982 C17.9768304,1.10321637 17.8190994,0.725292398 17.5327135,0.443923977 C17.251538,0.157602339 16.873614,0 16.4679006,0 C15.6358889,0 14.9589708,0.676853801 14.9589708,1.50892982 L14.9589708,3.50340351 C14.9589708,3.70294737 14.9982749,3.89335673 15.0689708,4.06787719 C12.6521228,4.33876023 10.4420877,5.30245029 8.64226901,6.75554386 C8.57234503,6.52776023 8.44812865,6.3132924 8.26826901,6.13343275 L6.85705263,4.72208772 C6.57066667,4.43583041 6.19068421,4.27816374 5.78722222,4.27816374 C5.38697661,4.27816374 5.00879532,4.43583041 4.72234503,4.72215205 C4.13381287,5.31074854 4.13381287,6.26839181 4.72234503,6.8569883 L6.13349708,8.26807602 C6.31342105,8.448 6.52795322,8.57221637 6.75567251,8.64214035 C5.30257895,10.4419591 4.33888889,12.6519942 4.06800585,15.0687778 C3.89348538,14.9980819 3.70307602,14.9587778 3.50353216,14.9587778 L1.50892982,14.9587778 C1.10321637,14.9587778 0.725292398,15.1164444 0.444052632,15.4028304 C0.157602339,15.6841345 0,16.0621228 0,16.4679006 C0,17.2999123 0.676853801,17.9768304 1.50892982,17.9768304 L3.50340351,17.9768304 C3.70191813,17.9768304 3.89226316,17.9366901 4.06710526,17.8649006 C4.32949708,20.228614 5.25426901,22.4450175 6.75059064,24.2953333 C6.52473684,24.3655146 6.31194152,24.4890877 6.13336842,24.6675965 L4.72221637,26.0786842 C4.13368421,26.6672807 4.13368421,27.624924 4.72221637,28.2135205 C5.00853801,28.4997778 5.38665497,28.6575088 5.78709357,28.6575088 C6.19068421,28.6575088 6.57060234,28.4998421 6.8569883,28.2134561 L8.26814035,26.8023684 C8.4465848,26.6238596 8.57015789,26.411193 8.64033918,26.1854035 C10.4905263,27.6818538 12.7062865,28.6063041 15.0685848,28.8685673 C14.9980819,29.0428947 14.9589708,29.2329825 14.9589708,29.432269 L14.9589708,31.426807 C14.9589708,32.2588187 15.6358246,32.9357368 16.4679006,32.9357368 C17.2999123,32.9357368 17.9768304,32.258883 17.9768304,31.426807 L17.9768304,29.432269 C17.9768304,29.233883 17.9386199,29.0423801 17.8665731,28.8653509 C20.2320877,28.6018655 22.4511287,27.6736842 24.2951404,26.1846316 C24.3653216,26.4107427 24.4888947,26.6236023 24.6675965,26.8022398 L26.0787485,28.2134561 C26.3650702,28.4997135 26.7450526,28.6574444 27.1486433,28.6574444 C27.5490175,28.6574444 27.9271988,28.4997778 28.2135205,28.2134561 C28.8020526,27.6248596 28.8020526,26.6672164 28.2135205,26.0786199 L26.8023684,24.6675322 C26.623731,24.4888947 26.410807,24.3653216 26.1847602,24.2951404 C27.6797953,22.4449532 28.6052749,20.2252047 28.8683743,17.8670234 C29.0427661,17.9375906 29.2329825,17.9767661 29.4323333,17.9767661 L31.426807,17.9767661 C32.2588187,17.9767661 32.9357368,17.2999123 32.9357368,16.4678363 C32.9357368,15.6357602 32.2588187,14.9589064 31.4267427,14.9589064 Z M3.98907602,16.4844327 C3.97878363,16.7436082 3.76219298,16.9534444 3.50346784,16.9534444 L1.50892982,16.9534444 C1.2411345,16.9534444 1.02332164,16.7356316 1.02332164,16.4678363 C1.02332164,16.3384094 1.0728538,16.2189532 1.1627193,16.1315322 L1.17269006,16.1215614 C1.26011111,16.0316959 1.37950292,15.9821637 1.50899415,15.9821637 L3.50346784,15.9821637 C3.77126316,15.9821637 3.98907602,16.1999766 3.98907602,16.4677719 L3.98907602,16.4844327 L3.98907602,16.4844327 Z M25.391152,6.85705263 L26.8022398,5.44596491 C26.8953216,5.35281871 27.0183158,5.30161404 27.1485146,5.30161404 C27.2754971,5.30161404 27.3967544,5.35281871 27.4897719,5.44590058 C27.679345,5.63540936 27.679345,5.94392398 27.4897719,6.13343275 L26.0786842,7.5445848 C25.8893041,7.73409357 25.5807251,7.73422222 25.3912164,7.5445848 C25.2015789,7.3550117 25.2015789,7.04662573 25.391152,6.85705263 Z M15.9822281,1.50892982 C15.9822281,1.2411345 16.2000409,1.02332164 16.4678363,1.02332164 C16.5972632,1.02332164 16.7167836,1.0728538 16.8042047,1.1627193 L16.8140468,1.1725614 C16.9039766,1.26004678 16.9535088,1.37956725 16.9535088,1.50899415 L16.9535088,3.50346784 C16.9535088,3.77126316 16.7356959,3.98907602 16.4679006,3.98907602 C16.2001053,3.98907602 15.9822924,3.77126316 15.9822924,3.50346784 L15.9822924,1.50892982 L15.9822281,1.50892982 Z M5.44590058,6.13343275 C5.25632749,5.94392398 5.25632749,5.63540936 5.44583626,5.44596491 C5.53891813,5.35281871 5.66017544,5.30161404 5.78715789,5.30161404 C5.91742105,5.30161404 6.0404152,5.35281871 6.13336842,5.44583626 L7.54452047,6.85711696 C7.73409357,7.04662573 7.73409357,7.35507602 7.54452047,7.5445848 C7.35494737,7.73422222 7.04636842,7.73409357 6.85705263,7.5445848 L5.44590058,6.13343275 Z M7.54452047,26.0787485 L6.13336842,27.4899006 C6.0404152,27.5829825 5.91735673,27.6341871 5.78715789,27.6341871 C5.66011111,27.6341871 5.53891813,27.5829825 5.44590058,27.4899006 C5.25632749,27.3003918 5.25632749,26.9918772 5.44590058,26.8023684 L6.85705263,25.3912164 C6.95180702,25.2963977 7.07634503,25.2490526 7.20081871,25.2490526 C7.32522807,25.2490526 7.44976608,25.2963977 7.54452047,25.3912164 C7.73409357,25.5807251 7.73409357,25.8890468 7.54452047,26.0787485 Z M16.9535088,31.426807 C16.9535088,31.6946023 16.7356959,31.9124152 16.4679006,31.9124152 C16.2001053,31.9124152 15.9822924,31.6946023 15.9822924,31.426807 L15.9822924,29.432269 C15.9822924,29.1644737 16.2001053,28.9466608 16.4679006,28.9466608 C16.5973275,28.9466608 16.7167836,28.996193 16.804269,29.0861228 L16.8141111,29.0959649 C16.9040409,29.1834503 16.9535731,29.3029064 16.9535731,29.4323333 L16.9535731,31.426807 L16.9535088,31.426807 L16.9535088,31.426807 Z M27.4897719,26.8022398 C27.679345,26.9917485 27.679345,27.3002632 27.4897719,27.4897719 C27.3968187,27.5828538 27.2755614,27.6340585 27.1485146,27.6340585 C27.0182515,27.6340585 26.8952573,27.5828538 26.8023041,27.4898363 L25.3912164,26.0785556 C25.2016433,25.8890468 25.2016433,25.5805965 25.3912164,25.3910877 C25.4859708,25.296269 25.6105088,25.248924 25.7349181,25.248924 C25.8593918,25.248924 25.9839298,25.296269 26.0786842,25.3910877 L27.4897719,26.8022398 Z M24.7349474,24.3952339 C22.6847018,26.5314854 19.9302632,27.7793099 16.9789181,27.9088655 L16.9720994,27.9092515 C16.8087719,27.9185789 16.6392047,27.9232749 16.4678363,27.9232749 C10.1655439,27.9232749 5.02661404,22.7950234 5.01233333,16.4916374 L5.01220468,16.4916374 L5.01233333,16.4678363 C5.01233333,10.1512632 10.1512632,5.01239766 16.4678363,5.01239766 C16.6380468,5.01239766 16.807807,5.01709357 16.9788538,5.02687135 C19.9301988,5.15636257 22.6847018,6.40418713 24.734883,8.54050292 C26.7909825,10.6829298 27.9232105,13.4982222 27.9232105,16.4679006 C27.9232105,19.4375789 26.7910468,22.2528713 24.7349474,24.3952339 Z M31.4267427,16.9534444 L29.432269,16.9534444 C29.1644737,16.9534444 28.9466608,16.7356316 28.9466608,16.4678363 C28.9466608,16.3384094 28.996193,16.2189532 29.0860585,16.1315322 L29.0959649,16.1215614 C29.183386,16.0316959 29.3028421,15.9821637 29.432269,15.9821637 L31.4267427,15.9821637 C31.694538,15.9821637 31.9123509,16.1999766 31.9123509,16.4677719 C31.9123509,16.7355673 31.694538,16.9534444 31.4267427,16.9534444 Z"/>
  </g>
</svg>
