<svg xmlns="http://www.w3.org/2000/svg" width="20" height="27" viewBox="0 0 20 27">
  <g>
    <path d="M18.68634 21.9760653L12.0803793 21.9760653C11.8562869 21.9760653 11.6746002 22.157752 11.6746002 22.3818444 11.6746002 22.6059367 11.8562869 22.7876234 12.0803793 22.7876234L18.68634 22.7876234C18.9104323 22.7876234 19.092119 22.6059367 19.092119 22.3818444 19.092119 22.157752 18.9104323 21.9760653 18.68634 21.9760653zM9.80647366 21.9760653L3.43439124 21.9760653C3.21029889 21.9760653 3.02861219 22.157752 3.02861219 22.3818444 3.02861219 22.6059367 3.21029889 22.7876234 3.43439124 22.7876234L9.80647366 22.7876234C10.030566 22.7876234 10.2122527 22.6059367 10.2122527 22.3818444 10.2122527 22.157752 10.030566 21.9760653 9.80647366 21.9760653zM18.68634 23.2165987L15.7414 23.2165987C15.5173076 23.2165987 15.3356209 23.3982854 15.3356209 23.6223777 15.3356209 23.8464701 15.5173076 24.0281568 15.7414 24.0281568L18.68634 24.0281568C18.9104323 24.0281568 19.092119 23.8464701 19.092119 23.6223777 19.092119 23.3982854 18.9104323 23.2165987 18.68634 23.2165987zM11.6822115 24.4571839L10.2684311 24.4571839C10.0443388 24.4571839 9.86265208 24.6388706 9.86265208 24.8629629 9.86265208 25.0870553 10.0443388 25.268742 10.2684311 25.268742L11.6822115 25.268742C11.9063039 25.268742 12.0879906 25.0870553 12.0879906 24.8629629 12.0879906 24.6388706 11.9063039 24.4571839 11.6822115 24.4571839zM13.8058075 23.2165987L8.0916598 23.2165987C7.86756745 23.2165987 7.68588075 23.3982854 7.68588075 23.6223777 7.68588075 23.8464701 7.86756745 24.0281568 8.0916598 24.0281568L13.8058075 24.0281568C14.0298998 24.0281568 14.2115865 23.8464701 14.2115865 23.6223777 14.2116383 23.3982854 14.0299516 23.2165987 13.8058075 23.2165987zM6.19759277 23.2165987L3.43439124 23.2165987C3.21029889 23.2165987 3.02861219 23.3982854 3.02861219 23.6223777 3.02861219 23.8464701 3.21029889 24.0281568 3.43439124 24.0281568L6.19759277 24.0281568C6.42168511 24.0281568 6.60337181 23.8464701 6.60337181 23.6223777 6.60342359 23.3982854 6.42173689 23.2165987 6.19759277 23.2165987zM18.68634 24.4571839L13.2832188 24.4571839C13.0591264 24.4571839 12.8774397 24.6388706 12.8774397 24.8629629 12.8774397 25.0870553 13.0590746 25.268742 13.2832188 25.268742L18.68634 25.268742C18.9104323 25.268742 19.092119 25.0870553 19.092119 24.8629629 19.092119 24.6388706 18.9104323 24.4571839 18.68634 24.4571839zM8.66747564 24.4571839L3.43439124 24.4571839C3.21029889 24.4571839 3.02861219 24.6388706 3.02861219 24.8629629 3.02861219 25.0870553 3.21029889 25.268742 3.43439124 25.268742L8.66742386 25.268742C8.89151621 25.268742 9.07320291 25.0870553 9.07320291 24.8629629 9.07320291 24.6388706 8.89156799 24.4571839 8.66747564 24.4571839z"/>
    <path d="M3.01344143,21.4659031 L18.7500261,21.4659031 C18.947246,21.4659031 19.1071344,21.3060147 19.1071344,21.1087948 L19.1071344,20.637155 L19.1042349,20.637155 L19.1042349,0.866752742 C19.1042349,0.388071195 18.7162155,0 18.2374822,0 L3.01235411,0 L2.67849379,0 C1.41543726,0 0.34975596,0.867425847 0.0505346879,2.02998256 C0.0505346879,2.02998256 0.0565926372,21.9531797 0.0565926372,23.5772279 C0.0565926372,25.1943897 1.38297286,26.5100002 3.01344143,26.5100002 L18.7074651,26.5100002 C18.9281919,26.5100002 19.1071344,26.3310577 19.1071344,26.1103309 L19.1071344,26.0808178 C19.1071344,25.8601428 18.9281919,25.6811485 18.7074651,25.6811485 L3.01344143,25.6811485 C1.84006326,25.6811485 0.885392586,24.7374029 0.885392586,23.5698755 C0.885340808,22.4096488 1.84006326,21.4659031 3.01344143,21.4659031 Z M0.867736511,21.5790366 C0.866442078,16.4265696 0.862558777,3.48767013 0.862092781,2.14192517 C1.10715495,1.35402933 1.84094347,0.81160987 2.67844202,0.81160987 L3.01230233,0.81160987 L17.777544,0.81160987 C18.0620087,0.81160987 18.292625,1.04222616 18.292625,1.32669089 L18.292625,20.6372067 C18.292625,20.642954 18.2926768,20.6487531 18.2927804,20.6543968 L3.01344143,20.6543968 C2.16781385,20.654345 1.40451224,21.0102625 0.867736511,21.5790366 Z"/>
    <path d="M3.36697714 17.3506916L3.0132861 17.3506916C2.34768834 17.3506916 1.7183865 17.5674833 1.19357134 17.9777152 1.01695882 18.1157019.985685301 18.3707571 1.1237237 18.547266 1.2037197 18.6496816 1.32311825 18.7032194 1.44375947 18.7032194 1.53115962 18.7032194 1.61918111 18.6751043 1.69332626 18.6171137 2.07409685 18.3195493 2.5306177 18.1621979 3.01333788 18.1621979L3.36702892 18.1621979C3.59112126 18.1621979 3.77280796 17.9805112 3.77280796 17.7564189 3.77280796 17.5323783 3.59112126 17.3506916 3.36697714 17.3506916zM3.36697714 14.9219717L3.0132861 14.9219717C2.34768834 14.9219717 1.7183865 15.1387635 1.19357134 15.5489953 1.01695882 15.686982.985685301 15.9420372 1.1237237 16.1185461 1.2037197 16.2209617 1.32311825 16.2744995 1.44375947 16.2744995 1.53115962 16.2744995 1.61918111 16.2463844 1.69332626 16.1883938 2.07409685 15.8908294 2.5306177 15.733478 3.01333788 15.733478L3.36702892 15.733478C3.59112126 15.733478 3.77280796 15.5517913 3.77280796 15.327699 3.77280796 15.1036584 3.59112126 14.9219717 3.36697714 14.9219717zM3.36697714 12.442044L3.0132861 12.442044C2.34768834 12.442044 1.7183865 12.6588358 1.19357134 13.0690677 1.01695882 13.2070543.985685301 13.4621095 1.1237237 13.6386185 1.2037197 13.741034 1.32311825 13.7945718 1.44375947 13.7945718 1.53115962 13.7945718 1.61918111 13.7664567 1.69332626 13.7084661 2.07409685 13.4108499 2.5306177 13.2535503 3.01333788 13.2535503L3.36702892 13.2535503C3.59112126 13.2535503 3.77280796 13.0718636 3.77280796 12.8477713 3.77280796 12.6237307 3.59112126 12.442044 3.36697714 12.442044zM3.36697714 9.94917202L3.0132861 9.94917202C2.34763656 9.94917202 1.7183865 10.1659638 1.19357134 10.5761957 1.01695882 10.7141823.985685301 10.9692375 1.1237237 11.1457464 1.2037197 11.248162 1.32311825 11.3016998 1.44375947 11.3016998 1.53115962 11.3016998 1.61918111 11.2735847 1.69332626 11.2155941 2.07409685 10.9180297 2.53056592 10.7607301 3.01333788 10.7607301L3.36702892 10.7607301C3.59112126 10.7607301 3.77280796 10.5790434 3.77280796 10.3549511 3.77285974 10.1308587 3.59112126 9.94917202 3.36697714 9.94917202zM3.36697714 7.46277217L3.0132861 7.46277217C2.34763656 7.46277217 1.7183865 7.67956391 1.19357134 8.08979581 1.01695882 8.22778243.985685301 8.48283763 1.1237237 8.6593466 1.2037197 8.76176219 1.32311825 8.81529996 1.44375947 8.81529996 1.53115962 8.81529996 1.61918111 8.78718486 1.69332626 8.72919424 2.07409685 8.43162984 2.53056592 8.27433027 3.01333788 8.27433027L3.36702892 8.27433027C3.59112126 8.27433027 3.77280796 8.09264357 3.77280796 7.86855122 3.77280796 7.64445887 3.59112126 7.46277217 3.36697714 7.46277217zM3.36697714 4.98688313L3.0132861 4.98688313C2.34768834 4.98688313 1.7183865 5.20367487 1.19357134 5.61390677 1.01695882 5.75189339.985685301 6.00694859 1.1237237 6.18345755 1.2037197 6.28587314 1.32311825 6.33941091 1.44375947 6.33941091 1.53115962 6.33941091 1.61918111 6.31129582 1.69332626 6.25330519 2.07409685 5.95574079 2.5306177 5.79838944 3.01333788 5.79838944L3.36702892 5.79838944C3.59112126 5.79838944 3.77280796 5.61670274 3.77280796 5.3926104 3.77285974 5.16851805 3.59112126 4.98688313 3.36697714 4.98688313zM3.36697714 2.49903352L3.0132861 2.49903352C2.34768834 2.49903352 1.71843828 2.71582526 1.19357134 3.12600538 1.01695882 3.26404378.985685301 3.5190472 1.1237237 3.69560794 1.2037197 3.79802353 1.32317003 3.8515613 1.44375947 3.8515613 1.53115962 3.85150953 1.61918111 3.8234462 1.69332626 3.76545558 2.07409685 3.4678394 2.5306177 3.31053983 3.01333788 3.31053983L3.36702892 3.31053983C3.59112126 3.31053983 3.77280796 3.12885313 3.77280796 2.90476079 3.77280796 2.68066844 3.59112126 2.49903352 3.36697714 2.49903352zM13.9223583 4.73193149L12.7180691 4.73193149C12.6310313 4.73193149 12.5601482 4.66110008 12.5601482 4.57401059L12.5601482 3.38975917C12.5601482 2.44150889 11.7887175 1.67007824 10.8404672 1.67007824 9.89221694 1.67007824 9.12078629 2.44156067 9.12078629 3.38975917L9.12078629 4.57416592C9.12078629 4.66120363 9.04995488 4.73208682 8.96286539 4.73208682L7.80077468 4.73208682C7.34109541 4.73208682 6.90901348 4.91118465 6.58416242 5.23634637 6.25931136 5.56150809 6.08067953 5.99374536 6.08109374 6.45301041L6.08109374 6.46036279C6.08202574 7.4076293 6.85345639 8.17838685 7.80077468 8.17838685L8.96291717 8.17838685C9.04995488 8.17838685 9.12083807 8.24921825 9.12083807 8.33630775L9.12083807 16.0978352C9.12083807 17.0460855 9.89226872 17.8175161 10.840519 17.8175161 11.7887693 17.8175161 12.5601999 17.0460337 12.5601999 16.0977316L12.5601999 8.33620419C12.5601999 8.24916648 12.6310313 8.17828329 12.7181208 8.17828329L13.9224101 8.17828329C14.3820893 8.17828329 14.8141713 7.99918546 15.1390223 7.67402374 15.4638734 7.34886202 15.6425052 6.91662475 15.642091 6.4573597L15.642091 6.44995554C15.6411072 5.50258548 14.8696766 4.73193149 13.9223583 4.73193149zM14.8304811 6.4578257C14.8306883 6.70055789 14.7364017 6.92874065 14.5648116 7.1004861 14.3932215 7.27223155 14.1650905 7.36677698 13.9223583 7.36677698L12.7180691 7.36677698C12.1835198 7.36677698 11.7485383 7.80165489 11.7485383 8.33630775L11.7485383 16.0977834C11.7485383 16.5985221 11.3412059 17.0059063 10.8404154 17.0059063 10.339625 17.0059063 9.93229261 16.5985739 9.93229261 16.0977834L9.93229261 8.33625597C9.93229261 7.80170667 9.49741469 7.3667252 8.96276184 7.3667252L7.80077468 7.3667252C7.30055375 7.3667252 6.89316961 6.95975527 6.89265184 6.45984502L6.89265184 6.45249263C6.89239295 6.20976044 6.98673127 5.98157769 7.15832139 5.80983224 7.32991151 5.63808679 7.55804249 5.54354136 7.80077468 5.54354136L7.80077468 5.54348958 8.96291717 5.54348958C9.49746647 5.54348958 9.93244794 5.10861167 9.93244794 4.57395881L9.93244794 3.38975917C9.93244794 2.88902047 10.3397803 2.48163633 10.8405708 2.48163633 11.3413613 2.48163633 11.7486936 2.88907225 11.7486936 3.38975917L11.7486936 4.57411414C11.7486936 5.10871522 12.1835715 5.54364491 12.7182244 5.54364491L13.9225136 5.54364491C14.4227863 5.54364491 14.8301187 5.95061484 14.8306365 6.45047332L14.8306365 6.4578257 14.8304811 6.4578257z"/>
    <path d="M13.7990247,6.03195704 L11.2470229,6.03195704 L11.2470229,3.48000708 C11.2470229,3.25591474 11.0653362,3.07422803 10.8412439,3.07422803 C10.6171515,3.07422803 10.4354648,3.25591474 10.4354648,3.48000708 L10.4354648,6.03200882 L7.8834631,6.03200882 C7.65937075,6.03200882 7.47768405,6.21369552 7.47768405,6.43778787 C7.47768405,6.66188021 7.65937075,6.84356691 7.8834631,6.84356691 L10.4354648,6.84356691 L10.4354648,16.0076391 C10.4354648,16.2317314 10.6171515,16.4134181 10.8412439,16.4134181 C11.0653362,16.4134181 11.2470229,16.2317314 11.2470229,16.0076391 L11.2470229,6.84356691 L13.7990247,6.84356691 C14.023117,6.84356691 14.2048037,6.66188021 14.2048037,6.43778787 C14.2048037,6.21364375 14.023117,6.03195704 13.7990247,6.03195704 Z"/>
  </g>
</svg>
