<svg xmlns="http://www.w3.org/2000/svg" width="32" height="27" viewBox="0 0 32 27">
  <g>
    <path d="M28.7801014,1.38598051 C28.546807,1.23265497 28.233232,1.29759064 28.0799064,1.53100975 C27.9265809,1.76442885 27.9915166,2.07787914 28.2249357,2.23120468 C29.5998752,3.13431579 30.4872671,4.4248577 30.8001559,5.94283041 C30.5712281,5.76966862 30.3078674,5.59083041 30.0140039,5.42415595 C28.5183626,4.57581287 26.9475556,4.44319688 25.4711891,5.04034308 C23.3991735,5.8785809 22.3747992,5.4182924 21.7843899,4.99892398 C21.619961,4.88233918 21.4597739,4.74535673 21.2946589,4.58017934 C21.097232,4.38262768 20.7771072,4.3825653 20.5796179,4.58005458 C20.3821287,4.7774191 20.3820663,5.09760624 20.5794932,5.29503314 C20.6693801,5.38492008 20.7587057,5.46750877 20.8483431,5.54560624 C20.3157583,6.28672125 19.069692,6.61364522 18.3347524,6.71850292 C18.0551735,6.17107212 17.5174737,4.90155166 17.9518129,3.92414815 C18.9029552,1.78401559 21.8372242,1.02462378 24.0608187,1.02462378 C25.1161949,1.02462378 26.1735673,1.23745809 27.1184094,1.64010916 C27.3755945,1.74958285 27.6723275,1.6300039 27.7818012,1.3731306 C27.8912749,1.11619493 27.7718207,0.819274854 27.514885,0.709738791 C26.4456608,0.254128655 25.251306,0.0133489279 24.0608187,0.0133489279 C20.022269,0.0133489279 17.7797739,1.82131774 17.0277427,3.51338791 C16.3527485,5.03210916 17.2369591,6.83496296 17.5359376,7.37110331 L17.4950175,7.79458869 C16.5922807,7.91079922 15.8922729,8.6837271 15.8922729,9.61765302 C15.8922729,10.4303782 16.416,11.1207797 17.1510643,11.3633684 C17.0014191,13.0463314 17.7544483,14.7048421 19.1228382,15.6991501 L19.2298791,15.7769357 C17.7035478,16.4831189 16.6744327,18.0295984 16.6744327,19.773193 L16.6744327,25.8046628 C16.6744327,26.0839298 16.9007407,26.3103002 17.1800702,26.3103002 L30.2078752,26.3103002 C30.4872047,26.3103002 30.7135127,26.0839298 30.7135127,25.8046628 L30.7135127,19.7732554 C30.7135127,18.9068226 30.4619415,18.0682729 29.9857466,17.3481793 C29.8317973,17.1152593 29.5180975,17.0512593 29.285115,17.205271 C29.0521949,17.3592827 28.9881949,17.6729825 29.142269,17.9059025 C29.5086784,18.4600702 29.7023002,19.1057466 29.7023002,19.7733177 L29.7023002,22.4993684 L28.1895049,22.4993684 L28.1895049,20.6051306 C28.1895049,20.3258635 27.9631969,20.0994932 27.6838674,20.0994932 C27.404538,20.0994932 27.17823,20.3258635 27.17823,20.6051306 L27.17823,25.2991501 L20.2100273,25.2991501 L20.2100273,20.6051306 C20.2100273,20.3258635 19.9837193,20.0994932 19.7043899,20.0994932 C19.4250604,20.0994932 19.1987524,20.3258635 19.1987524,20.6051306 L19.1987524,22.4993684 L17.6858947,22.4993684 L17.6858947,19.7733177 C17.6858947,18.4457232 18.459883,17.2664016 19.6125692,16.7140429 C19.6879844,17.167345 19.8378168,17.6067368 20.0573255,18.0100117 C20.1490838,18.1785575 20.3226823,18.2739961 20.5019571,18.2739961 C20.5836101,18.2739961 20.6664483,18.2541598 20.7432359,18.2123665 C20.9885068,18.0788772 21.0790175,17.7717895 20.9455906,17.5265809 C20.824577,17.3042651 20.7318207,17.0671657 20.6682573,16.8216452 L21.4684444,17.4029474 C22.1340195,17.8869396 22.9138713,18.1288421 23.6940975,18.1288421 C24.4740117,18.1288421 25.2542378,17.8868772 25.9199376,17.4030721 L26.7214347,16.8208967 C26.3716179,18.1656452 25.1472593,19.1613255 23.6945965,19.1613255 C22.9782456,19.1613255 22.3044366,18.9257856 21.7459649,18.4801559 C21.5277037,18.3059961 21.2094503,18.3418012 21.0354152,18.5600624 C20.861193,18.778386 20.8969981,19.0965146 21.1153216,19.2706745 C21.8442729,19.8522885 22.7602963,20.172538 23.6946589,20.172538 C25.7450292,20.172538 27.4509474,18.6734035 27.7763743,16.7139805 C27.9255205,16.7855906 28.0698012,16.8682417 28.2087173,16.9621209 C28.2955478,17.0208187 28.3940429,17.0490136 28.49154,17.0490136 C28.6537232,17.0490136 28.8130994,16.9711033 28.910846,16.8266355 C29.0672281,16.5953372 29.0065965,16.2809513 28.7752982,16.1245692 C28.5779961,15.9911423 28.3718986,15.8756803 28.1586901,15.7769357 L28.2656062,15.6992749 C29.6341209,14.7049045 30.3870877,13.046269 30.2373177,11.363306 C30.9721326,11.1204678 31.4956101,10.4302534 31.4956101,9.61784016 C31.4956101,8.6842885 30.7959142,7.91154776 29.8933645,7.79496296 L29.8367251,7.20848343 C29.8099649,6.93046394 29.5628226,6.72723587 29.2848655,6.75374659 C29.0069084,6.7805692 28.803306,7.02764912 28.830191,7.30560624 L29.2278519,11.4242495 C29.3574113,12.7647563 28.7608889,14.0893567 27.6712047,14.8811228 L25.3255361,16.5849825 C24.3495049,17.2942846 23.0385653,17.2942846 22.0630331,16.5849201 L19.7174893,14.8810604 C18.6277427,14.089232 18.0311579,12.7646316 18.1607173,11.4240624 L18.5192047,7.71156335 C19.2935673,7.59466667 20.9046082,7.22451462 21.6840858,6.11705263 C22.8226121,6.69554776 24.1921871,6.64845224 25.8505107,5.97757505 C27.0382534,5.49701365 28.2623002,5.60155945 29.4883431,6.28840546 C30.4415439,6.82223782 31.0392515,7.52274464 31.0444912,7.52898246 C31.142425,7.64587914 31.2853957,7.70987914 31.4321092,7.70987914 C31.4898713,7.70987914 31.5483197,7.69996101 31.6048343,7.6794386 C31.8046316,7.60676803 31.9376842,7.41682651 31.9376842,7.20430409 C31.9376218,4.78964522 30.8162495,2.72324366 28.7801014,1.38598051 Z M17.2538635,10.2946433 C17.0414659,10.1446862 16.9037973,9.89735673 16.9037973,9.6177154 C16.9037973,9.28237037 17.104655,8.99368421 17.3920936,8.86381287 L17.2538635,10.2946433 Z M28.1896296,23.5105185 L29.702425,23.5105185 L29.702425,25.2990877 L28.1896296,25.2990877 L28.1896296,23.5105185 Z M19.1988148,23.5105185 L19.1988148,25.2990877 L17.6859571,25.2990877 L17.6859571,23.5105185 L19.1988148,23.5105185 Z M30.4841481,9.6177154 C30.4841481,9.89710721 30.3466043,10.1442495 30.1344561,10.2941442 L29.9964133,8.86412476 C30.28354,8.99418324 30.4841481,9.28268226 30.4841481,9.6177154 Z"/>
    <path d="M21.1503782 10.0899181C20.8710487 10.0899181 20.6447407 10.3162885 20.6447407 10.5955556L20.6447407 11.2809669C20.6447407 11.5602339 20.8710487 11.7866043 21.1503782 11.7866043 21.4297076 11.7866043 21.6560156 11.5602339 21.6560156 11.2809669L21.6560156 10.5955556C21.6559532 10.3162885 21.4296452 10.0899181 21.1503782 10.0899181zM27.5750175 8.58099025C27.2177778 8.22375049 26.7428304 8.02707212 26.237692 8.02707212 25.7325536 8.02707212 25.2576062 8.22381287 24.9003665 8.58099025 24.7029396 8.77841715 24.7029396 9.09860429 24.9004288 9.29603119 25.0977934 9.49352047 25.4179805 9.49339571 25.6154074 9.29603119 25.7815828 9.12985575 26.0025887 9.0382846 26.2375673 9.0382846 26.4725458 9.0382846 26.693614 9.12985575 26.8597271 9.29603119 26.9585341 9.39471345 27.0879064 9.44405458 27.2173411 9.44405458 27.3467135 9.44405458 27.4761481 9.39471345 27.5748304 9.29603119 27.7724444 9.09860429 27.7724444 8.77847953 27.5750175 8.58099025zM22.4876413 8.58099025C22.1304016 8.22375049 21.6554542 8.02707212 21.1503158 8.02707212 20.6451774 8.02707212 20.17023 8.22381287 19.8129903 8.58099025 19.6154386 8.77841715 19.6154386 9.09854191 19.8129279 9.29596881 20.0104172 9.49339571 20.3305419 9.49339571 20.5279064 9.29596881 20.6941442 9.12973099 20.9151501 9.03815984 21.150191 9.03815984 21.385232 9.03815984 21.6062378 9.12973099 21.7723509 9.29590643 21.8711579 9.39471345 22.0005302 9.44405458 22.1299649 9.44405458 22.2593372 9.44405458 22.3887719 9.39471345 22.4874542 9.29603119 22.6851306 9.09860429 22.6851306 8.77847953 22.4876413 8.58099025zM26.237692 10.0899181C25.9583626 10.0899181 25.7320546 10.3162885 25.7320546 10.5955556L25.7320546 11.2809669C25.7320546 11.5602339 25.9583626 11.7866043 26.237692 11.7866043 26.5170214 11.7866043 26.7433294 11.5602339 26.7433294 11.2809669L26.7433294 10.5955556C26.7433294 10.3162885 26.5169591 10.0899181 26.237692 10.0899181zM25.1626043 13.9949786C24.9650526 13.7975517 24.6449903 13.7975517 24.447501 13.9949786 24.0320624 14.4104795 23.355883 14.4104795 22.9404444 13.9949786 22.7428928 13.7975517 22.4228304 13.7975517 22.2253411 13.9949786 22.0279142 14.1924678 22.0279142 14.5125926 22.2253411 14.7099571 22.6302378 15.1148538 23.1620741 15.317271 23.6939103 15.317271 24.225809 15.317271 24.7575828 15.1148538 25.1625419 14.7099571 25.3600936 14.5125302 25.3600936 14.1923431 25.1626043 13.9949786zM24.1225731 10.1470565C23.8432437 10.1470565 23.6169357 10.3734269 23.6169357 10.652694L23.6169357 11.861271 23.2654971 11.861271C22.98623 11.861271 22.7598596 12.0876413 22.7598596 12.3669084 22.7598596 12.6461754 22.9861676 12.8725458 23.2654971 12.8725458L24.1225731 12.8725458C24.4019025 12.8725458 24.6282105 12.6461754 24.6282105 12.3669084L24.6282105 10.6527563C24.6281481 10.3734269 24.4018402 10.1470565 24.1225731 10.1470565zM11.6300975 11.7048265C11.2872671 11.3619337 10.831345 11.173115 10.3465419 11.173115 9.86161404 11.173115 9.40569201 11.3619337 9.06279922 11.7048265 8.86530994 11.9022534 8.86530994 12.2224405 9.06279922 12.4198051 9.26022612 12.617232 9.58041326 12.617232 9.77777778 12.4198051 9.92966862 12.2679142 10.1316491 12.1842651 10.3464172 12.1842651 10.5611852 12.1842651 10.7631657 12.2679142 10.9150565 12.4198051 11.0137388 12.5184873 11.1431735 12.5678908 11.2725458 12.5678908 11.4019181 12.5678908 11.5313528 12.5185497 11.6300351 12.4198051 11.8275244 12.2223782 11.8275244 11.902191 11.6300975 11.7048265zM6.82136452 11.7048265C6.47847173 11.3619337 6.02254971 11.173115 5.53774659 11.173115 5.05281871 11.173115 4.59689669 11.3619337 4.2540039 11.7048265 4.05651462 11.9022534 4.05651462 12.2224405 4.2540039 12.4198051 4.45149318 12.617232 4.77161793 12.617232 4.96898246 12.4198051 5.12087329 12.2679142 5.3228538 12.1842651 5.53762183 12.1842651 5.75238986 12.1842651 5.95437037 12.2679142 6.10626121 12.4198051 6.20494347 12.5184873 6.33437817 12.5678908 6.46375049 12.5678908 6.59312281 12.5678908 6.72261988 12.5185497 6.82130214 12.4198051 7.0188538 12.2223782 7.0188538 11.902191 6.82136452 11.7048265zM9.34992593 15.0220351C9.15249903 14.8246082 8.83231189 14.8246082 8.63488499 15.0220351 8.25288109 15.4041014 7.63140741 15.404039 7.24946589 15.0220351 7.05197661 14.8246082 6.73185185 14.8246082 6.53448733 15.0220351 6.33699805 15.2195244 6.33699805 15.5396491 6.53448733 15.7370136 6.91050292 16.1130292 7.41046394 16.3201248 7.94223782 16.3201248 8.4740117 16.3201248 8.97397271 16.1130292 9.3499883 15.7370136 9.54735283 15.5395867 9.54735283 15.219462 9.34992593 15.0220351zM8.28438207 12.8162807L7.6002807 12.8162807C7.32107602 12.8162807 7.09464327 13.0426511 7.09464327 13.3219181 7.09464327 13.6011228 7.32101365 13.8275556 7.6002807 13.8275556L8.28438207 13.8275556C8.56358674 13.8275556 8.79001949 13.6011852 8.79001949 13.3219181 8.78995712 13.0426511 8.56358674 12.8162807 8.28438207 12.8162807z"/>
    <path d="M15.8841014,10.6776452 C15.8841014,10.0008421 15.5009747,9.41205458 14.9403197,9.11575828 L15.5963509,8.21582846 C15.9025653,7.79583626 15.9595789,7.26138012 15.7489279,6.78618324 C15.5382768,6.31098635 15.1038752,5.99441715 14.5870097,5.93933723 C14.3098635,5.90983236 14.0602885,6.11075244 14.0307212,6.38852242 C14.001154,6.66623002 14.2021365,6.91524366 14.4799064,6.94481092 C14.7009123,6.96838986 14.7945419,7.12838986 14.8245458,7.19607018 C14.8545497,7.26375049 14.9102534,7.44059259 14.7793216,7.62017934 L13.6840858,9.1225575 C13.553154,9.30208187 13.3678908,9.3031423 13.2942222,9.29540741 C13.220616,9.28761014 13.0396569,9.24731384 12.9495828,9.04421053 L12.1769669,7.30167641 C12.3496296,7.14716569 12.4893567,6.95691228 12.5849825,6.74264327 L13.1003509,6.79759844 C13.1186277,6.79953216 13.1367173,6.80053021 13.1546199,6.80053021 C13.409809,6.80053021 13.6290682,6.60790643 13.6567018,6.34853801 C13.686269,6.07083041 13.4852865,5.82175439 13.2075789,5.79218713 L12.6928967,5.73729435 C12.5371384,4.9891306 11.8728733,4.42523197 11.0791735,4.42523197 C11.0206004,4.42523197 10.9628382,4.42841326 10.9057622,4.43440156 L10.1332086,2.69267836 C9.92249513,2.21760624 9.48809357,1.90103704 8.97129045,1.84601949 C8.45430019,1.79075244 7.96319688,2.00882651 7.65704483,2.42888109 L6.56193372,3.93150877 C6.25578168,4.35156335 6.19883041,4.88601949 6.40960624,5.361154 C6.62025731,5.8362885 7.05472125,6.1528577 7.57158674,6.20793762 L9.46538791,6.40973099 C9.49264717,6.54066277 9.5354386,6.66598051 9.59176608,6.78356335 C8.30821053,8.04204288 6.13214815,9.2745731 2.81238207,8.5311501 C3.28015595,7.04193372 4.3814425,5.80734503 5.84976218,5.18637037 C6.10694737,5.07764522 6.22727485,4.78091228 6.11848733,4.5237271 C6.00969981,4.26654191 5.71302924,4.14615205 5.45584405,4.25500195 C3.49068226,5.08606628 2.07918908,6.8425731 1.67366862,8.91440156 C0.742674464,8.96237037 0,9.73498635 0,10.6777076 C0,11.4825107 0.534643275,12.1626199 1.27519688,12.374768 C1.17221053,14.0992125 1.95692788,15.7751891 3.36324366,16.7968187 L3.76277583,17.0870643 C2.28185575,17.7477115 1.27956335,19.2349318 1.27956335,20.913653 L1.27956335,22.0100741 C1.27956335,22.2892788 1.50593372,22.5157115 1.78520078,22.5157115 C2.06446784,22.5157115 2.29083821,22.2893411 2.29083821,22.0100741 L2.29083821,20.913653 C2.29083821,19.6821209 3.00138791,18.5863236 4.06356335,18.0622846 C4.38811696,19.9099259 6.00339961,21.3186745 7.94261209,21.3186745 C9.52926316,21.3186745 10.9540429,20.374269 11.5723977,18.9126238 C11.6811852,18.655501 11.5609201,18.3588304 11.3037349,18.2499805 C11.0466745,18.141193 10.7498791,18.2613957 10.6410916,18.5186433 C10.1813645,19.6053333 9.12218324,20.3073996 7.94261209,20.3073996 C6.56099805,20.3073996 5.40063938,19.3454659 5.09417544,18.0541754 L5.66705653,18.470425 C6.34753996,18.9648343 7.14498246,19.212039 7.94242495,19.212039 C8.73986745,19.212039 9.53730994,18.9648343 10.2177934,18.470425 L11.1200936,17.8148928 C12.5589708,18.1394464 13.5940117,19.4273684 13.5940117,20.9135283 L13.5940117,25.2990253 L12.219384,25.2990253 L12.219384,21.6998051 C12.219384,21.4206004 11.9930136,21.1941676 11.7137466,21.1941676 C11.4344795,21.1941676 11.2081092,21.420538 11.2081092,21.6998051 L11.2081092,25.2990253 L4.67655361,25.2990253 L4.67655361,21.6998051 C4.67655361,21.4206004 4.45018324,21.1941676 4.17091618,21.1941676 C3.89164912,21.1941676 3.66527875,21.420538 3.66527875,21.6998051 L3.66527875,25.2990253 L2.29071345,25.2990253 L2.29071345,23.8593372 C2.29071345,23.5801326 2.06434308,23.3536998 1.78507602,23.3536998 C1.50580897,23.3536998 1.2794386,23.5800702 1.2794386,23.8593372 L1.2794386,25.8046628 C1.2794386,26.0838674 1.50580897,26.3103002 1.78507602,26.3103002 L14.099462,26.3103002 C14.3786667,26.3103002 14.6050994,26.0839298 14.6050994,25.8046628 L14.6050994,20.9135906 C14.6050994,19.234807 13.6027446,17.7476491 12.1218869,17.0870019 L12.5212943,16.7967563 C13.9277349,15.7749396 14.7124522,14.098963 14.6093411,12.3743938 C15.3497076,12.1618713 15.8841014,11.4820741 15.8841014,10.6776452 Z M1.38361014,11.3293099 C1.15998441,11.1982534 1.01121248,10.9553528 1.01121248,10.6777076 C1.01121248,10.3421131 1.23153216,10.0573567 1.53500195,9.95961014 L1.38361014,11.3293099 Z M11.0790487,5.43650682 C11.4303002,5.43650682 11.716117,5.72226121 11.716117,6.07357505 C11.716117,6.42488889 11.4303626,6.71064327 11.0790487,6.71064327 C10.7277349,6.71064327 10.4419805,6.42488889 10.4419805,6.07357505 C10.4419805,5.72226121 10.7277349,5.43650682 11.0790487,5.43650682 Z M9.57330214,5.40425731 L7.67862768,5.20240156 C7.45762183,5.17888499 7.3639922,5.01888499 7.33392593,4.95120468 C7.30385965,4.88352437 7.24821832,4.70674464 7.37908772,4.52709552 L8.47419883,3.02440546 C8.6051306,2.84481871 8.79051852,2.84369591 8.86406238,2.85155556 C8.93766862,2.85935283 9.11862768,2.89952437 9.20876413,3.10275244 L9.98162963,4.84516179 C9.80884211,4.99961014 9.66899025,5.18992593 9.57330214,5.40425731 Z M11.9268928,15.978729 L9.62332943,17.65246 C8.61779337,18.3830331 7.26668226,18.3829708 6.26127096,17.65246 L3.95764522,15.978729 C2.77539181,15.1197817 2.14075634,13.6838363 2.30131774,12.231423 L2.59773879,9.54978558 C2.59879922,9.53992982 2.60035867,9.53026121 2.60154386,9.52046784 C3.37996101,9.69475244 4.10435867,9.77359844 4.77554776,9.77359844 C6.68138791,9.77359844 8.16361793,9.15087719 9.27688109,8.36235478 C9.56862378,8.71803509 10.0556725,9.21475244 10.7513762,9.61478363 C11.0143002,9.7659883 11.3501442,9.65788694 11.4710331,9.37968031 C11.5742066,9.14239376 11.4802027,8.86730604 11.256078,8.73818324 C10.6933645,8.41406628 10.297076,8.00842105 10.0649669,7.72734503 C10.1412554,7.65785575 10.2151111,7.58805458 10.2865965,7.51812865 C10.5219493,7.64775049 10.7920468,7.72179337 11.0792359,7.72179337 C11.1378713,7.72179337 11.195883,7.71854971 11.2529591,7.7125614 L12.0252008,9.45409747 C12.2358519,9.92916959 12.6702534,10.2457388 13.1870565,10.3008811 C13.2399532,10.3064951 13.2924756,10.3093021 13.3447485,10.3093021 C13.3535439,10.3093021 13.3622144,10.3086784 13.3709474,10.3085536 L13.5835322,12.2312982 C13.7439064,13.6838363 13.1092086,15.1197193 11.9268928,15.978729 Z M14.5009279,11.3288733 L14.3495984,9.95992203 C14.6528187,10.0579181 14.8728889,10.3424873 14.8728889,10.6777076 C14.8728889,10.9550409 14.7243041,11.1977544 14.5009279,11.3288733 Z"/>
  </g>
</svg>
