<svg xmlns="http://www.w3.org/2000/svg" xmlns:xlink="http://www.w3.org/1999/xlink" width="49" height="35" viewBox="0 0 49 35">
  <defs>
    <rect id="location-small-a" width="21" height="21" rx="1"/>
  </defs>
  <g fill="none" fill-rule="evenodd">
    <g transform="translate(1 1)">
      <rect width="47" height="33" fill="#4A4A4A" rx="2"/>
      <g transform="translate(4.988 4.664)">
        <rect width="6.762" height="11.661" fill="#1C4A51" rx="3.381"/>
        <rect width="4.545" height="2.565" x="1.108" y="1.049" fill="#FB0" rx="1.283"/>
        <rect width="4.545" height="2.565" x="1.108" y="8.046" fill="#FB0" rx="1.283"/>
        <rect width="1" height="2.565" x="1.108" y="4.548" fill="#FB0" rx=".5"/>
        <rect width="1" height="2.565" x="2.993" y="4.548" fill="#FB0" rx=".5"/>
        <rect width="1" height="2.565" x="4.767" y="4.548" fill="#FB0" rx=".5"/>
      </g>
    </g>
    <g transform="translate(21 7)">
      <mask id="location-small-b" fill="#fff">
        <use xlink:href="#location-small-a"/>
      </mask>
      <use fill="#FFF" xlink:href="#location-small-a"/>
      <g fill-rule="nonzero" mask="url(#location-small-b)">
        <g transform="translate(2.362 1.575)">
          <path fill="#ED8A19" d="M11.830875,15.4875 C11.6857125,15.4875 11.568375,15.3701625 11.568375,15.225 C11.568375,15.0798375 11.6857125,14.9625 11.830875,14.9625 L12.3375,14.9625 C12.4826625,14.9625 12.6091875,15.0798375 12.6091875,15.2247375 C12.6091875,15.3699 12.5010375,15.4872375 12.355875,15.4872375 L12.355875,15.2247375 L12.3482625,15.4872375 L11.830875,15.4875 Z M10.780875,15.4875 L10.255875,15.4875 C10.1107125,15.4875 9.993375,15.3701625 9.993375,15.225 C9.993375,15.0798375 10.1107125,14.9625 10.255875,14.9625 L10.780875,14.9625 C10.9260375,14.9625 11.043375,15.0798375 11.043375,15.225 C11.043375,15.3701625 10.9260375,15.4875 10.780875,15.4875 Z M9.205875,15.4875 L8.680875,15.4875 C8.5357125,15.4875 8.418375,15.3701625 8.418375,15.225 C8.418375,15.0798375 8.5357125,14.9625 8.680875,14.9625 L9.205875,14.9625 C9.3510375,14.9625 9.468375,15.0798375 9.468375,15.225 C9.468375,15.3701625 9.3510375,15.4875 9.205875,15.4875 Z M7.630875,15.4875 L7.105875,15.4875 C6.9607125,15.4875 6.843375,15.3701625 6.843375,15.225 C6.843375,15.0798375 6.9607125,14.9625 7.105875,14.9625 L7.630875,14.9625 C7.7760375,14.9625 7.893375,15.0798375 7.893375,15.225 C7.893375,15.3701625 7.7760375,15.4875 7.630875,15.4875 Z M6.055875,15.4875 L5.530875,15.4875 C5.3857125,15.4875 5.268375,15.3701625 5.268375,15.225 C5.268375,15.0798375 5.3857125,14.9625 5.530875,14.9625 L6.055875,14.9625 C6.2010375,14.9625 6.318375,15.0798375 6.318375,15.225 C6.318375,15.3701625 6.2010375,15.4875 6.055875,15.4875 Z M4.480875,15.4875 L3.955875,15.4875 C3.8107125,15.4875 3.693375,15.3701625 3.693375,15.225 C3.693375,15.0798375 3.8107125,14.9625 3.955875,14.9625 L4.480875,14.9625 C4.6260375,14.9625 4.743375,15.0798375 4.743375,15.225 C4.743375,15.3701625 4.6260375,15.4875 4.480875,15.4875 Z M13.2659625,15.036525 C13.2092625,15.036525 13.1520375,15.01815 13.104,14.98035 C12.9898125,14.890575 12.9703875,14.7254625 13.0599,14.6118 C13.1452125,14.5033875 13.20375,14.380275 13.2339375,14.2464 C13.2657,14.1049125 13.4061375,14.0161875 13.547625,14.04795 C13.6891125,14.0797125 13.7778375,14.22015 13.746075,14.3616375 C13.69935,14.5695375 13.60485,14.76825 13.47255,14.9359875 C13.4208375,15.0021375 13.343925,15.036525 13.2659625,15.036525 Z M13.266225,13.5762375 C13.1882625,13.5762375 13.11135,13.54185 13.0596375,13.4759625 C12.9756375,13.369125 12.8669625,13.2806625 12.745425,13.2202875 C12.61575,13.1557125 12.562725,12.9982125 12.6273,12.868275 C12.691875,12.7386 12.84885,12.6853125 12.9793125,12.75015 C13.17015,12.8449125 13.3405125,12.983775 13.47255,13.15125 C13.5620625,13.265175 13.5426375,13.4302875 13.42845,13.5198 C13.3804125,13.5576 13.322925,13.5762375 13.266225,13.5762375 Z M11.8311375,13.125 L11.3061375,13.125 C11.160975,13.125 11.0436375,13.0076625 11.0436375,12.8625 C11.0436375,12.7173375 11.160975,12.6 11.3061375,12.6 L11.8311375,12.6 C11.9763,12.6 12.0936375,12.7173375 12.0936375,12.8625 C12.0936375,13.0076625 11.9763,13.125 11.8311375,13.125 Z M10.2561375,13.125 L9.7311375,13.125 C9.585975,13.125 9.4686375,13.0076625 9.4686375,12.8625 C9.4686375,12.7173375 9.585975,12.6 9.7311375,12.6 L10.2561375,12.6 C10.4013,12.6 10.5186375,12.7173375 10.5186375,12.8625 C10.5186375,13.0076625 10.4013,13.125 10.2561375,13.125 Z M8.6963625,13.018425 C8.659875,13.018425 8.6228625,13.0108125 8.587425,12.9945375 C8.394225,12.9063375 8.2194,12.7729875 8.0815875,12.60945 C7.9884,12.4984125 8.002575,12.332775 8.1136125,12.2395875 C8.22465,12.1464 8.390025,12.160575 8.483475,12.2716125 C8.57115,12.375825 8.6827125,12.460875 8.805825,12.5173125 C8.9376,12.577425 8.9956125,12.7330875 8.9352375,12.865125 C8.8911375,12.9614625 8.7961125,13.018425 8.6963625,13.018425 Z M8.02725,11.720625 C8.0107125,11.720625 7.994175,11.71905 7.9776375,11.7159 C7.8351,11.6886 7.742175,11.5507875 7.7692125,11.4085125 C7.8099,11.19615 7.896,11.0000625 8.024625,10.8252375 C8.110725,10.708425 8.2747875,10.68375 8.3916,10.769325 C8.5084125,10.855425 8.53335,11.01975 8.4475125,11.1363 C8.36535,11.2476 8.31075,11.3722875 8.285025,11.5072125 C8.2606125,11.6332125 8.150625,11.720625 8.02725,11.720625 Z M9.1308,10.7638125 C8.9908875,10.7638125 8.8743375,10.6533 8.868825,10.512075 C8.86305,10.367175 8.9754,10.24485 9.1203,10.239075 C9.1426125,10.238025 9.164925,10.2375 9.1875,10.2375 L9.6560625,10.2375 C9.801225,10.2375 9.9185625,10.3548375 9.9185625,10.5 C9.9185625,10.6451625 9.801225,10.7625 9.6560625,10.7625 L9.141825,10.76355 C9.13815,10.7638125 9.134475,10.7638125 9.1308,10.7638125 Z M13.9125,10.7625 L13.8560625,10.7625 C13.7109,10.7625 13.5935625,10.6451625 13.5935625,10.5 C13.5935625,10.3548375 13.7109,10.2375 13.8560625,10.2375 L13.9125,10.2375 C14.0356125,10.2375 14.1547875,10.2136125 14.2674,10.1663625 C14.3999625,10.109925 14.5548375,10.172925 14.6110125,10.3068 C14.6671875,10.4404125 14.60445,10.5942375 14.470575,10.6504125 C14.2933875,10.7247 14.1057,10.7625 13.9125,10.7625 Z M12.8060625,10.7625 L12.2810625,10.7625 C12.1359,10.7625 12.0185625,10.6451625 12.0185625,10.5 C12.0185625,10.3548375 12.1359,10.2375 12.2810625,10.2375 L12.8060625,10.2375 C12.951225,10.2375 13.0685625,10.3548375 13.0685625,10.5 C13.0685625,10.6451625 12.951225,10.7625 12.8060625,10.7625 Z M11.2310625,10.7625 L10.7060625,10.7625 C10.5609,10.7625 10.4435625,10.6451625 10.4435625,10.5 C10.4435625,10.3548375 10.5609,10.2375 10.7060625,10.2375 L11.2310625,10.2375 C11.376225,10.2375 11.4935625,10.3548375 11.4935625,10.5 C11.4935625,10.6451625 11.376225,10.7625 11.2310625,10.7625 Z M15.045975,9.914625 C15.0215625,9.914625 14.996625,9.9112125 14.9722125,9.904125 C14.8330875,9.8634375 14.7532875,9.7174875 14.793975,9.5783625 C14.81865,9.4943625 14.83125,9.4072125 14.83125,9.3190125 C14.831775,9.2686125 14.827575,9.2208375 14.820225,9.1741125 C14.797125,9.03105 14.8945125,8.896125 15.0378375,8.8732875 C15.180375,8.8496625 15.3155625,8.947575 15.3386625,9.0909 C15.351,9.1678125 15.356775,9.24525 15.35625,9.32085 C15.35625,9.4570875 15.336825,9.59385 15.297975,9.7258875 C15.264375,9.8403375 15.1596375,9.914625 15.045975,9.914625 Z M14.503125,8.55855 C14.4585,8.55855 14.4130875,8.5472625 14.3716125,8.5231125 C14.2527,8.454075 14.123025,8.41365 13.9857375,8.4028875 C13.8411,8.3916 13.7332125,8.2653375 13.7445,8.1207 C13.7557875,7.9758 13.882575,7.8689625 14.0266875,7.8794625 C14.242725,7.8962625 14.4477375,7.9603125 14.6349,8.0689875 C14.760375,8.1417 14.8031625,8.3026125 14.7301875,8.427825 C14.6818875,8.5115625 14.5936875,8.55855 14.503125,8.55855 Z M12.9562125,8.4 L12.4312125,8.4 C12.28605,8.4 12.1687125,8.2826625 12.1687125,8.1375 C12.1687125,7.9923375 12.28605,7.875 12.4312125,7.875 L12.9562125,7.875 C13.101375,7.875 13.2187125,7.9923375 13.2187125,8.1375 C13.2187125,8.2826625 13.101375,8.4 12.9562125,8.4 Z M11.3812125,8.4 L10.8562125,8.4 C10.71105,8.4 10.5937125,8.2826625 10.5937125,8.1375 C10.5937125,7.9923375 10.71105,7.875 10.8562125,7.875 L11.3812125,7.875 C11.526375,7.875 11.6437125,7.9923375 11.6437125,8.1375 C11.6437125,8.2826625 11.526375,8.4 11.3812125,8.4 Z M9.8062125,8.4 L9.2812125,8.4 C9.13605,8.4 9.0187125,8.2826625 9.0187125,8.1375 C9.0187125,7.9923375 9.13605,7.875 9.2812125,7.875 L9.8062125,7.875 C9.951375,7.875 10.0687125,7.9923375 10.0687125,8.1375 C10.0687125,8.2826625 9.951375,8.4 9.8062125,8.4 Z M8.2312125,8.4 L8.1375,8.4 C7.959525,8.3997375 7.7865375,8.3677125 7.6222125,8.3052375 C7.4867625,8.253525 7.4190375,8.1018 7.4704875,7.96635 C7.5224625,7.8306375 7.674975,7.7634375 7.809375,7.814625 C7.91385,7.854525 8.0243625,7.8747375 8.138025,7.875 L8.2312125,7.875 C8.376375,7.875 8.4937125,7.9923375 8.4937125,8.1375 C8.4937125,8.2826625 8.376375,8.4 8.2312125,8.4 Z M7.01505,7.5875625 C6.9048,7.5875625 6.8019,7.517475 6.765675,7.4069625 C6.7179,7.2620625 6.6940125,7.1103375 6.6940125,6.9559875 C6.694275,6.8935125 6.6982125,6.832875 6.7055625,6.7738125 C6.7234125,6.6304875 6.8504625,6.529425 6.998775,6.546225 C7.142625,6.564075 7.2447375,6.6955875 7.2263625,6.8394375 C7.221375,6.878025 7.219275,6.9176625 7.2190125,6.9573 C7.2190125,7.054425 7.2345,7.1507625 7.2646875,7.2429 C7.3098375,7.38045 7.235025,7.529025 7.0972125,7.5744375 C7.0699125,7.583625 7.0420875,7.5875625 7.01505,7.5875625 Z M7.51485,6.21495 C7.427175,6.21495 7.3416,6.1711125 7.291725,6.0913125 C7.215075,5.9682 7.2526125,5.8062375 7.3754625,5.7295875 C7.5592125,5.614875 7.7618625,5.54505 7.9776375,5.5211625 C8.1228,5.5062 8.251425,5.6093625 8.2674375,5.753475 C8.28345,5.8975875 8.1792375,6.0272625 8.035125,6.043275 C7.8983625,6.0585 7.7697375,6.1028625 7.65345,6.1753125 C7.6101375,6.2020875 7.5623625,6.21495 7.51485,6.21495 Z M11.15625,6.0375 L10.63125,6.0375 C10.4860875,6.0375 10.36875,5.9201625 10.36875,5.775 C10.36875,5.6298375 10.4860875,5.5125 10.63125,5.5125 L11.15625,5.5125 C11.3014125,5.5125 11.41875,5.6298375 11.41875,5.775 C11.41875,5.9201625 11.3014125,6.0375 11.15625,6.0375 Z M9.58125,6.0375 L9.05625,6.0375 C8.9110875,6.0375 8.79375,5.9201625 8.79375,5.775 C8.79375,5.6298375 8.9110875,5.5125 9.05625,5.5125 L9.58125,5.5125 C9.7264125,5.5125 9.84375,5.6298375 9.84375,5.775 C9.84375,5.9201625 9.7264125,6.0375 9.58125,6.0375 Z"/>
          <path fill="#26B99A" d="M14.035875,0.7006125 L14.035875,0.7006125 C13.2071625,-0.233625 11.863425,-0.233625 11.0347125,0.7006125 L11.0347125,0.7006125 C10.206,1.63485 10.206,3.1492125 11.0347125,4.08345 L12.5351625,5.775 L14.0356125,4.08345 C14.8645875,3.149475 14.8645875,1.63485 14.035875,0.7006125 Z M12.6,3.4125 C11.9476875,3.4125 11.41875,2.8835625 11.41875,2.23125 C11.41875,1.5789375 11.9476875,1.05 12.6,1.05 C13.2523125,1.05 13.78125,1.5789375 13.78125,2.23125 C13.78125,2.8835625 13.2523125,3.4125 12.6,3.4125 Z"/>
          <path fill="#3083C9" d="M5.060475,7.518 C3.932775,6.2440875 2.1044625,6.2440875 0.977025,7.518 L0.977025,7.518 C-0.150675,8.7919125 -0.150675,10.8572625 0.977025,12.1309125 L3.01875,14.4375 L5.060475,12.1309125 C6.188175,10.857 6.188175,8.79165 5.060475,7.518 Z M3.01875,10.7625 C2.2939875,10.7625 1.70625,10.1747625 1.70625,9.45 C1.70625,8.7252375 2.2939875,8.1375 3.01875,8.1375 C3.7435125,8.1375 4.33125,8.7252375 4.33125,9.45 C4.33125,10.1747625 3.7435125,10.7625 3.01875,10.7625 Z"/>
        </g>
      </g>
    </g>
  </g>
</svg>
