<svg xmlns="http://www.w3.org/2000/svg" xmlns:xlink="http://www.w3.org/1999/xlink" width="49" height="35" viewBox="0 0 49 35">
  <defs>
    <rect id="language-small-a" width="23" height="21" rx="4"/>
  </defs>
  <g fill="none" fill-rule="evenodd">
    <rect width="47" height="33" fill="#4A4A4A" rx="2" transform="translate(1 1)"/>
    <g transform="translate(8 7)">
      <use fill="#FFF" xlink:href="#language-small-a"/>
      <rect width="22" height="20" x=".5" y=".5" stroke="#979797" rx="4"/>
      <g fill="#000" fill-rule="nonzero" transform="translate(4.452 3.436)">
        <path d="M4.28217014,0.041619703 C4.21039438,0.0437584933 4.14216518,0.0739905831 4.09138735,0.126073017 L3.24696661,0.993150163 C3.13578455,1.10471409 3.13370164,1.28772517 3.24235045,1.40189033 C3.35099925,1.51605549 3.52922832,1.51819428 3.64041038,1.40663035 C3.64198663,1.40506961 3.64356288,1.40345107 3.64508284,1.40183252 L4.00891559,1.02823788 L4.00891559,3.50969707 L3.44596843,3.50969707 C3.29053872,3.50744267 3.16269342,3.63501862 3.16049793,3.79461862 C3.15830244,3.95421862 3.28254487,4.0854941 3.43797458,4.0877485 C3.44062043,4.0878063 3.44326629,4.0878063 3.44591214,4.0877485 L4.2442838,4.0877485 C4.27440147,4.09283535 4.30508209,4.09283535 4.33519976,4.0877485 L4.85328003,4.0877485 C5.00870974,4.0900029 5.13655504,3.96242695 5.13875053,3.80282695 C5.14094603,3.64322695 5.01670359,3.51195147 4.86127388,3.50969707 C4.85862803,3.50963926 4.85598218,3.50963926 4.85333632,3.50969707 L4.57186275,3.50969707 L4.57186275,0.330414198 C4.57180645,0.170756393 4.44570629,0.0414462876 4.29022028,0.0415040927 C4.28757443,0.0415040927 4.28487229,0.0415618979 4.28217014,0.041619703 Z M7.38642965,0.041619703 C7.31465388,0.0437584933 7.24642469,0.0739905831 7.19564686,0.126073017 L6.35122612,0.993150163 C6.23908705,1.1037314 6.23542789,1.28668468 6.34311968,1.40183252 C6.45081147,1.51698037 6.62898425,1.5207377 6.74112332,1.41015647 C6.74388176,1.40743962 6.74658391,1.40466498 6.74922976,1.40183252 L7.1131751,1.02812227 L7.1131751,3.50969707 L6.55022794,3.50969707 C6.39479823,3.50744267 6.26695293,3.63501862 6.26475744,3.79461862 C6.26256194,3.95421862 6.38680438,4.0854941 6.54223409,4.0877485 C6.54487994,4.0878063 6.54752579,4.0878063 6.55017165,4.0877485 L7.3485433,4.0877485 C7.37877357,4.09283535 7.40956678,4.09283535 7.43979704,4.0877485 L7.95753954,4.0877485 C8.11296925,4.0900029 8.24081455,3.96242695 8.24301004,3.80282695 C8.24520554,3.64322695 8.1209631,3.51195147 7.96553339,3.50969707 C7.96288754,3.50963926 7.96024168,3.50963926 7.95759583,3.50969707 L7.67612225,3.50969707 L7.67612225,0.330414198 C7.67606596,0.170756393 7.5499658,0.0414462876 7.39447979,0.0415040927 C7.39183394,0.0415040927 7.38913179,0.0415618979 7.38642965,0.041619703 Z M1.04544917,0.0435850779 C0.504513242,0.0435850779 0.0602916405,0.499725462 0.0602916405,1.05517508 L0.0602916405,3.07835509 C0.0602916405,3.63380471 0.504513242,4.08994509 1.04544917,4.08994509 C1.58638509,4.08994509 2.03060669,3.63380471 2.03060669,3.07835509 L2.03060669,1.05517508 C2.03060669,0.499725462 1.58638509,0.0435850779 1.04544917,0.0435850779 Z M10.3581714,0.0435850779 C9.81723547,0.0435850779 9.37301387,0.499725462 9.37301387,1.05517508 L9.37301387,3.07835509 C9.37301387,3.63380471 9.81723547,4.08994509 10.3581714,4.08994509 C10.8991073,4.08994509 11.3433289,3.63380471 11.3433289,3.07835509 L11.3433289,1.05517508 C11.3433289,0.499725462 10.899051,0.0435850779 10.3581714,0.0435850779 Z M13.4624309,0.0435850779 C12.921495,0.0435850779 12.4772734,0.499725462 12.4772734,1.05517508 L12.4772734,3.07835509 C12.4772734,3.63380471 12.921495,4.08994509 13.4624309,4.08994509 C14.0033668,4.08994509 14.4475884,3.63380471 14.4475884,3.07835509 L14.4475884,1.05517508 C14.4475884,0.499725462 14.0033105,0.0435850779 13.4624309,0.0435850779 Z M1.04544917,0.621636509 C1.28419505,0.621636509 1.46765953,0.81002347 1.46765953,1.05517508 L1.46765953,3.07835509 C1.46765953,3.3235067 1.28419505,3.51189366 1.04544917,3.51189366 C0.806703276,3.51189366 0.623238798,3.3235067 0.623238798,3.07835509 L0.623238798,1.05517508 C0.623238798,0.809965665 0.806703276,0.621636509 1.04544917,0.621636509 Z M10.3581714,0.621636509 C10.5969173,0.621636509 10.7803818,0.81002347 10.7803818,1.05517508 L10.7803818,3.07835509 C10.7803818,3.3235067 10.5969173,3.51189366 10.3581714,3.51189366 C10.1194255,3.51189366 9.93596103,3.3235067 9.93596103,3.07835509 L9.93596103,1.05517508 C9.93596103,0.809965665 10.1193692,0.621636509 10.3581714,0.621636509 Z M13.4624309,0.621636509 C13.7011768,0.621636509 13.8846413,0.81002347 13.8846413,1.05517508 L13.8846413,3.07835509 C13.8846413,3.3235067 13.7011768,3.51189366 13.4624309,3.51189366 C13.223685,3.51189366 13.0402205,3.3235067 13.0402205,3.07835509 L13.0402205,1.05517508 C13.0402205,0.809965665 13.2236287,0.621636509 13.4624309,0.621636509 Z M1.17796693,5.24818674 C1.10619116,5.25032553 1.03796197,5.28055762 0.987184135,5.33264006 L0.142763399,6.1997172 C0.032876114,6.31266845 0.0330449981,6.49573734 0.143044873,6.60851518 C0.252932158,6.7212352 0.430992343,6.7212352 0.540879628,6.60851518 L0.904712376,6.23492054 L0.904712376,8.71637972 L0.341765219,8.71637972 C0.186335509,8.71412532 0.0584902096,8.84170127 0.0562947157,9.00130127 C0.0540992218,9.16090127 0.178341659,9.29217675 0.333771369,9.29443115 C0.336417221,9.29448895 0.339063073,9.29448895 0.341708924,9.29443115 L1.14008058,9.29443115 C1.17031084,9.299518 1.20110405,9.299518 1.23133432,9.29443115 L1.74907682,9.29443115 C1.90450653,9.29668555 2.03235183,9.1691096 2.03454732,9.0095096 C2.03674281,8.8499096 1.91250038,8.71863412 1.75707067,8.71637972 C1.75442481,8.71632191 1.75177896,8.71632191 1.74913311,8.71637972 L1.46765953,8.71637972 L1.46765953,5.53709685 C1.46765953,5.37743904 1.34161566,5.24807113 1.18612966,5.24807113 C1.18342751,5.24807113 1.18066907,5.24807113 1.17796693,5.24818674 Z M7.38642965,5.24818674 C7.31465388,5.25032553 7.24642469,5.28055762 7.19564686,5.33264006 L6.35122612,6.1997172 C6.23998776,6.31128113 6.23790486,6.49423441 6.34649736,6.60845737 C6.45514617,6.72268033 6.63331894,6.72481912 6.7445573,6.613313 C6.74613355,6.61175226 6.7477098,6.61013372 6.74922976,6.60851518 L7.1131751,6.23480493 L7.1131751,8.71637972 L6.55022794,8.71637972 C6.39479823,8.71412532 6.26695293,8.84170127 6.26475744,9.00130127 C6.26256194,9.16090127 6.38680438,9.29217675 6.54223409,9.29443115 C6.54487994,9.29448895 6.54752579,9.29448895 6.55017165,9.29443115 L7.3485433,9.29443115 C7.37877357,9.299518 7.40956678,9.299518 7.43979704,9.29443115 L7.95753954,9.29443115 C8.11296925,9.29668555 8.24081455,9.1691096 8.24301004,9.0095096 C8.24520554,8.8499096 8.1209631,8.71863412 7.96553339,8.71637972 C7.96288754,8.71632191 7.96024168,8.71632191 7.95759583,8.71637972 L7.67612225,8.71637972 L7.67612225,5.53709685 C7.67612225,5.37743904 7.55007839,5.24807113 7.39459238,5.24807113 C7.39189023,5.24807113 7.38913179,5.24807113 7.38642965,5.24818674 Z M10.4906329,5.24818674 C10.4188571,5.25032553 10.3506279,5.28055762 10.2998501,5.33264006 L9.45542933,6.1997172 C9.34419098,6.31128113 9.34210807,6.49423441 9.45070058,6.60845737 C9.55934938,6.72268033 9.73752215,6.72481912 9.84876051,6.613313 C9.85033676,6.61175226 9.85191302,6.61013372 9.85343297,6.60851518 L10.2173783,6.23480493 L10.2173783,8.71637972 L9.65443115,8.71637972 C9.49900144,8.71412532 9.37115614,8.84170127 9.36896065,9.00130127 C9.36676516,9.16090127 9.49100759,9.29217675 9.6464373,9.29443115 C9.64908316,9.29448895 9.65172901,9.29448895 9.65437486,9.29443115 L10.4527465,9.29443115 C10.4829768,9.299518 10.51377,9.299518 10.5440003,9.29443115 L11.0617428,9.29443115 C11.2171725,9.29668555 11.3450178,9.1691096 11.3472133,9.0095096 C11.3494087,8.8499096 11.2251663,8.71863412 11.0697366,8.71637972 C11.0670907,8.71632191 11.0644449,8.71632191 11.061799,8.71637972 L10.7803255,8.71637972 L10.7803255,5.53709685 C10.7803255,5.37743904 10.6542816,5.24807113 10.4987956,5.24807113 C10.4961497,5.24807113 10.4933913,5.24807113 10.4906329,5.24818674 Z M4.14970867,5.25009431 C3.60877275,5.25009431 3.16455115,5.7062347 3.16455115,6.26168432 L3.16455115,8.28486432 C3.16455115,8.84031394 3.60877275,9.29645433 4.14970867,9.29645433 C4.6906446,9.29645433 5.1348662,8.84031394 5.1348662,8.28486432 L5.1348662,6.26168432 C5.1348662,5.7062347 4.6905883,5.25009431 4.14970867,5.25009431 Z M13.4624309,5.25009431 C12.921495,5.25009431 12.4772734,5.7062347 12.4772734,6.26168432 L12.4772734,8.28486432 C12.4772734,8.84031394 12.921495,9.29645433 13.4624309,9.29645433 C14.0033668,9.29645433 14.4475884,8.84031394 14.4475884,8.28486432 L14.4475884,6.26168432 C14.4475884,5.7062347 14.0033105,5.25009431 13.4624309,5.25009431 Z M4.14970867,5.82814574 C4.38845456,5.82814574 4.57191904,6.01653271 4.57191904,6.26168432 L4.57191904,8.28486432 C4.57191904,8.53001594 4.38845456,8.7184029 4.14970867,8.7184029 C3.91096278,8.7184029 3.72749831,8.53001594 3.72749831,8.28486432 L3.72749831,6.26168432 C3.72749831,6.0164749 3.91090649,5.82814574 4.14970867,5.82814574 Z M13.4624309,5.82814574 C13.7011768,5.82814574 13.8846413,6.01653271 13.8846413,6.26168432 L13.8846413,8.28486432 C13.8846413,8.53001594 13.7011768,8.7184029 13.4624309,8.7184029 C13.223685,8.7184029 13.0402205,8.53001594 13.0402205,8.28486432 L13.0402205,6.26168432 C13.0402205,6.0164749 13.2236287,5.82814574 13.4624309,5.82814574 Z M1.17796693,10.454696 C1.10619116,10.4568348 1.03796197,10.4870669 0.987184135,10.5391493 L0.142763399,11.4062264 C0.0328198193,11.5191199 0.0328198193,11.702131 0.142763399,11.8150244 C0.252706979,11.9279179 0.430936049,11.9279179 0.540879628,11.8150244 L0.904712376,11.4414298 L0.904712376,13.9227733 L0.341765219,13.9227733 C0.186335509,13.9205189 0.0584902096,14.0480949 0.0562947157,14.2076949 C0.0540992218,14.3672949 0.178341659,14.4985704 0.333771369,14.5008248 C0.336417221,14.5008826 0.339063073,14.5008826 0.341708924,14.5008248 L1.14008058,14.5008248 C1.17031084,14.5059116 1.20110405,14.5059116 1.23133432,14.5008248 L1.74907682,14.5008248 C1.90450653,14.5030792 2.03235183,14.3755032 2.03454732,14.2159032 C2.03674281,14.0563032 1.91250038,13.9250277 1.75707067,13.9227733 C1.75442481,13.9227155 1.75177896,13.9227155 1.74913311,13.9227733 L1.46765953,13.9227733 L1.46765953,10.7434905 C1.46760324,10.5838327 1.34150308,10.4545226 1.18601707,10.4545804 C1.18337122,10.4545804 1.18066907,10.4546382 1.17796693,10.454696 Z M4.28217014,10.454696 C4.21039438,10.4568348 4.14216518,10.4870669 4.09138735,10.5391493 L3.24696661,11.4062264 C3.13702303,11.5191199 3.13702303,11.702131 3.24696661,11.8150244 C3.35691019,11.9279179 3.53513926,11.9279179 3.64508284,11.8150244 L4.00891559,11.4414298 L4.00891559,13.9227733 L3.44596843,13.9227733 C3.29053872,13.9205189 3.16269342,14.0480949 3.16049793,14.2076949 C3.15830244,14.3672949 3.28254487,14.4985704 3.43797458,14.5008248 C3.44062043,14.5008826 3.44326629,14.5008826 3.44591214,14.5008248 L4.2442838,14.5008248 C4.27440147,14.5059116 4.30508209,14.5059116 4.33519976,14.5008248 L4.85328003,14.5008248 C5.00870974,14.5030792 5.13655504,14.3755032 5.13875053,14.2159032 C5.14094603,14.0563032 5.01670359,13.9250277 4.86127388,13.9227733 C4.85862803,13.9227155 4.85598218,13.9227155 4.85333632,13.9227733 L4.57186275,13.9227733 L4.57186275,10.7434905 C4.57180645,10.5838327 4.44570629,10.4545226 4.29022028,10.4545804 C4.28757443,10.4545804 4.28487229,10.4546382 4.28217014,10.454696 Z M7.38642965,10.454696 C7.31465388,10.4568348 7.24642469,10.4870669 7.19564686,10.5391493 L6.35122612,11.4062264 C6.23998776,11.5177904 6.23790486,11.7007436 6.34649736,11.8149666 C6.45514617,11.9291896 6.63331894,11.9313284 6.7445573,11.8198222 C6.74613355,11.8182615 6.7477098,11.816643 6.74922976,11.8150244 L7.1131751,11.4413142 L7.1131751,13.9227733 L6.55022794,13.9227733 C6.39479823,13.9205189 6.26695293,14.0480949 6.26475744,14.2076949 C6.26256194,14.3672949 6.38680438,14.4985704 6.54223409,14.5008248 C6.54487994,14.5008826 6.54752579,14.5008826 6.55017165,14.5008248 L7.3485433,14.5008248 C7.37877357,14.5059116 7.40956678,14.5059116 7.43979704,14.5008248 L7.95753954,14.5008248 C8.11296925,14.5030792 8.24081455,14.3755032 8.24301004,14.2159032 C8.24520554,14.0563032 8.1209631,13.9250277 7.96553339,13.9227733 C7.96288754,13.9227155 7.96024168,13.9227155 7.95759583,13.9227733 L7.67612225,13.9227733 L7.67612225,10.7434905 C7.67606596,10.5838327 7.5499658,10.4545226 7.39447979,10.4545804 C7.39183394,10.4545804 7.38913179,10.4546382 7.38642965,10.454696 Z M10.4906329,10.454696 C10.4188571,10.4568348 10.3506279,10.4870669 10.2998501,10.5391493 L9.45542933,11.4062264 C9.34419098,11.5177904 9.34210807,11.7007436 9.45070058,11.8149666 C9.55934938,11.9291896 9.73752215,11.9313284 9.84876051,11.8198222 C9.85033676,11.8182615 9.85191302,11.816643 9.85343297,11.8150244 L10.2173783,11.4413142 L10.2173783,13.9227733 L9.65443115,13.9227733 C9.49900144,13.9205189 9.37115614,14.0480949 9.36896065,14.2076949 C9.36676516,14.3672949 9.49100759,14.4985704 9.6464373,14.5008248 C9.64908316,14.5008826 9.65172901,14.5008826 9.65437486,14.5008248 L10.4527465,14.5008248 C10.4829768,14.5059116 10.51377,14.5059116 10.5440003,14.5008248 L11.0617428,14.5008248 C11.2171725,14.5030792 11.3450178,14.3755032 11.3472133,14.2159032 C11.3494087,14.0563032 11.2251663,13.9250277 11.0697366,13.9227733 C11.0670907,13.9227155 11.0644449,13.9227155 11.061799,13.9227733 L10.7803255,13.9227733 L10.7803255,10.7434905 C10.7802692,10.5838327 10.654169,10.4545226 10.498683,10.4545804 C10.4960372,10.4545804 10.493335,10.4546382 10.4906329,10.454696 Z M13.4624309,10.4566035 C12.921495,10.4566035 12.4772734,10.9127439 12.4772734,11.4681936 L12.4772734,13.4913736 C12.4772734,14.0468232 12.921495,14.5029636 13.4624309,14.5029636 C14.0033668,14.5029636 14.4475884,14.0468232 14.4475884,13.4913736 L14.4475884,11.4681936 C14.4475884,10.9128017 14.0033105,10.4566035 13.4624309,10.4566035 Z M13.4624309,11.034655 C13.7011768,11.034655 13.8846413,11.2230419 13.8846413,11.4681936 L13.8846413,13.4913736 C13.8846413,13.7365252 13.7011768,13.9249121 13.4624309,13.9249121 C13.223685,13.9249121 13.0402205,13.7365252 13.0402205,13.4913736 L13.0402205,11.4681936 C13.0402205,11.2230419 13.2236287,11.034655 13.4624309,11.034655 Z"/>
      </g>
    </g>
    <g transform="rotate(90 17.5 27)">
      <path fill="#E7ECED" fill-rule="nonzero" d="M13.9655172,8.93349754 L4.03448276,8.93349754 C1.81551724,8.93349754 0,6.92346059 0,4.46674877 C0,2.01003695 1.81551724,0 4.03448276,0 L13.9655172,0 C16.1844828,0 18,2.01003695 18,4.46674877 C18,6.92346059 16.1844828,8.93349754 13.9655172,8.93349754 Z"/>
      <ellipse cx="13.935" cy="4.5" fill="#D8D8D8" stroke="#979797" rx="2.323" ry="2.571"/>
    </g>
  </g>
</svg>
