<svg xmlns="http://www.w3.org/2000/svg" xmlns:xlink="http://www.w3.org/1999/xlink" width="49" height="35" viewBox="0 0 49 35">
  <defs>
    <rect id="locatie-a" width="25.384" height="24.336" x="4" y="4" rx="4"/>
  </defs>
  <g fill="none" fill-rule="evenodd">
    <g transform="translate(1 1)">
      <rect width="47" height="33" fill="#4A4A4A" rx="4"/>
      <use fill="#FFF" xlink:href="#locatie-a"/>
      <rect width="24.384" height="23.336" x="4.5" y="4.5" stroke="#979797" rx="4"/>
    </g>
    <g fill-rule="nonzero" transform="translate(33 18)">
      <path fill="#E7ECED" d="M8.53448276 4.93103448L2.46551724 4.93103448C1.10948276 4.93103448 0 3.82155172 0 2.46551724L0 2.46551724C0 1.10948276 1.10948276 0 2.46551724 0L8.53448276 0C9.89051724 0 11 1.10948276 11 2.46551724L11 2.46551724C11 3.82155172 9.89051724 4.93103448 8.53448276 4.93103448zM2.46551724 11L8.53448276 11C9.89051724 11 11 9.89051724 11 8.53448276L11 8.53448276C11 7.17844828 9.89051724 6.06896552 8.53448276 6.06896552L2.46551724 6.06896552C1.10948276 6.06896552 0 7.17844828 0 8.53448276L0 8.53448276C0 9.89051724 1.10948276 11 2.46551724 11z"/>
      <circle cx="8.534" cy="2.466" r="1.707" fill="#88C057" stroke="#659C35" stroke-linecap="round" stroke-width="2"/>
      <circle cx="2.466" cy="8.534" r="1.707" fill="#ED7161" stroke="#D75A4A" stroke-linecap="round" stroke-width="2"/>
    </g>
    <g fill="#000" fill-rule="nonzero" transform="translate(10 10)">
      <path d="M8,0 C3.5888,0 0,3.5888 0,8 C0,12.4112 3.5888,16 8,16 C12.4112,16 16,12.4112 16,8 C16,3.5888 12.4112,0 8,0 Z M8,15.4666667 C3.88293333,15.4666667 0.533333333,12.1170667 0.533333333,8 C0.533333333,3.88293333 3.88293333,0.533333333 8,0.533333333 C12.1170667,0.533333333 15.4666667,3.88293333 15.4666667,8 C15.4666667,12.1170667 12.1170667,15.4666667 8,15.4666667 Z"/>
      <path d="M8,5.86666667 C6.82373333,5.86666667 5.86666667,6.82373333 5.86666667,8 C5.86666667,9.17626667 6.82373333,10.1333333 8,10.1333333 C9.17626667,10.1333333 10.1333333,9.17626667 10.1333333,8 C10.1333333,6.82373333 9.17626667,5.86666667 8,5.86666667 Z M8,9.6 C7.1176,9.6 6.4,8.8824 6.4,8 C6.4,7.1176 7.1176,6.4 8,6.4 C8.8824,6.4 9.6,7.1176 9.6,8 C9.6,8.8824 8.8824,9.6 8,9.6 Z"/>
      <path d="M8,4.26666667 C5.94133333,4.26666667 4.26666667,5.94133333 4.26666667,8 C4.26666667,10.0586667 5.94133333,11.7333333 8,11.7333333 C10.0586667,11.7333333 11.7333333,10.0586667 11.7333333,8 C11.7333333,5.94133333 10.0586667,4.26666667 8,4.26666667 Z M8,11.2 C6.23546667,11.2 4.8,9.76453333 4.8,8 C4.8,6.23546667 6.23546667,4.8 8,4.8 C9.76453333,4.8 11.2,6.23546667 11.2,8 C11.2,9.76453333 9.76453333,11.2 8,11.2 Z"/>
    </g>
  </g>
</svg>
