<svg xmlns="http://www.w3.org/2000/svg" width="30" height="30" viewBox="0 0 30 30">
  <g>
    <path d="M17.4997266 0L10.4997656 0C9.12128906 0 7.99974609 1.12148437 7.99974609 2.50001953L7.99974609 20.5000195C7.99974609 20.7759961 8.22322266 21 8.49972656 21L11.4997266 21C11.7762305 21 11.999707 20.7759961 11.999707 20.5000195 11.999707 20.224043 11.7762305 20.0000391 11.4997266 20.0000391L8.99970703 20.0000391 8.99970703 19.0000195 9.4996875 19.0000195C9.77619141 19.0000195 9.99966797 18.7760156 9.99966797 18.5000391 9.99966797 18.2240625 9.77619141 18.0000586 9.4996875 18.0000586L8.99970703 18.0000586 8.99970703 17.0000391 9.4996875 17.0000391C9.77619141 17.0000391 9.99966797 16.7760352 9.99966797 16.5000586 9.99966797 16.224082 9.77619141 16.0000781 9.4996875 16.0000781L8.99970703 16.0000781 8.99970703 15 9.4996875 15C9.77619141 15 9.99966797 14.7759961 9.99966797 14.5000195 9.99966797 14.224043 9.77619141 14.0000391 9.4996875 14.0000391L8.99970703 14.0000391 8.99970703 13.0000195 11.4997266 13.0000195C11.7762305 13.0000195 11.999707 12.7760156 11.999707 12.5000391 11.999707 12.2240625 11.7762305 12.0000586 11.4997266 12.0000586L8.99970703 12.0000586 8.99970703 11.0000391 9.4996875 11.0000391C9.77619141 11.0000391 9.99966797 10.7760352 9.99966797 10.5000586 9.99966797 10.224082 9.77619141 10.0000781 9.4996875 10.0000781L8.99970703 10.0000781 8.99970703 9 9.4996875 9C9.77619141 9 9.99966797 8.77599609 9.99966797 8.50001953 9.99966797 8.22404297 9.77619141 8.00003906 9.4996875 8.00003906L8.99970703 8.00003906 8.99970703 7.00001953 9.4996875 7.00001953C9.77619141 7.00001953 9.99966797 6.77601562 9.99966797 6.50003906 9.99966797 6.2240625 9.77619141 6.00005859 9.4996875 6.00005859L8.99970703 6.00005859 8.99970703 4.99998047 11.4997266 4.99998047C11.7762305 4.99998047 11.999707 4.77597656 11.999707 4.5 11.999707 4.22402344 11.7762305 4.00001953 11.4997266 4.00001953L8.99970703 4.00001953 8.99970703 2.50001953C8.99970703 1.67302734 9.67271484 1.00001953 10.499707 1.00001953L17.4997266 1.00001953C18.3267187 1.00001953 18.9997266 1.67302734 18.9997266 2.50001953L18.9997266 27.5000391C18.9997266 28.3270312 18.3267187 29.0000391 17.4997266 29.0000391L10.4997656 29.0000391C9.67277344 29.0000391 8.99976563 28.3270312 8.99976563 27.5000391L8.99976563 22.5C8.99976563 22.2240234 8.77628906 22.0000195 8.49978516 22.0000195 8.22328125 22.0000195 7.99980469 22.2240234 7.99980469 22.5L7.99980469 27.4999805C7.99980469 28.878457 9.12128906 30 10.4998242 30L17.4998437 30C18.8783203 30 19.9998633 28.8785156 19.9998633 27.4999805L19.9998633 2.50001953C19.9997461 1.12148437 18.8782617 0 17.4997266 0zM2.00027344 6.49951172L2.00027344 24.4995117C2.00027344 24.7754883 2.22375 24.9994922 2.50025391 24.9994922 2.77675781 24.9994922 3.00023438 24.7754883 3.00023438 24.4995117L3.00023438 6.49951172C3.00023438 6.22353516 2.77675781 5.99953125 2.50025391 5.99953125 2.22375 5.99953125 2.00027344 6.22347656 2.00027344 6.49951172z"/>
    <path d="M2.94726562.275976562C2.77775391-.063046875 2.22275391-.063046875 2.05277344.275976562L.052734375 4.27599609C.0182226562 4.34501953.000234375 4.42201172.000234375 4.49947266L.000234375 27.4994531C.000234375 28.8779297 1.12171875 29.9994727 2.50025391 29.9994727 3.87873047 29.9994727 5.00027344 28.8779883 5.00027344 27.4994531L5.00027344 26.4994336C5.00027344 26.223457 4.77679687 25.9994531 4.50029297 25.9994531L2.50025391 25.9994531C2.22375 25.9994531 2.00027344 26.223457 2.00027344 26.4994336 2.00027344 26.7754102 2.22375 26.9994141 2.50025391 26.9994141L4.00025391 26.9994141 4.00025391 27.4993945C4.00025391 28.3263867 3.32724609 28.9993945 2.50025391 28.9993945 1.67326172 28.9993945 1.00025391 28.3263867 1.00025391 27.4993945L1.00025391 4.61748047 2.50025391 1.61748047 3.69123047 3.99949219 2.50025391 3.99949219C2.22375 3.99949219 2.00027344 4.22349609 2.00027344 4.49947266 2.00027344 4.77544922 2.22375 4.99945312 2.50025391 4.99945312L4.00025391 4.99945312 4.00025391 24.4994531C4.00025391 24.7754297 4.22373047 24.9994336 4.50023437 24.9994336 4.77673828 24.9994336 5.00021484 24.7754297 5.00021484 24.4994531L5.00021484 4.50052734 5.00021484 4.49150391C4.99869141 4.41052734 4.97824219 4.33400391 4.94320312 4.26703125L2.94726562.275976562zM15.9997266 25.0000195C15.9997266 23.8969922 15.1027148 23.0000391 13.9997461 23.0000391 12.8967773 23.0000391 11.9997656 23.8970508 11.9997656 25.0000195 11.9997656 26.1029883 12.8967773 27 13.9997461 27 15.1027148 27 15.9997266 26.1029883 15.9997266 25.0000195zM12.9997266 25.0000195C12.9997266 24.4485352 13.4482031 24 13.9997461 24 14.5507617 24 14.9997656 24.4484766 14.9997656 25.0000195 14.9997656 25.5515625 14.5507617 26.0000391 13.9997461 26.0000391 13.4482617 25.9999805 12.9997266 25.5515039 12.9997266 25.0000195zM25.4997656 24C25.2232617 24 24.9997852 24.2240039 24.9997852 24.4999805 24.9997852 24.775957 25.2232617 24.9999609 25.4997656 24.9999609L29.4997852 24.9999609C29.7762891 24.9999609 29.9997656 24.775957 29.9997656 24.4999805L29.9997656 21.4999805C29.9997656 20.1215039 28.8782812 18.9999609 27.4997461 18.9999609L25.4997656 18.9999609C24.1212891 18.9999609 22.9997461 20.1214453 22.9997461 21.4999805L22.9997461 27.4999805C22.9997461 28.878457 24.1212305 30 25.4997656 30L27.4997461 30C28.8782227 30 29.9997656 28.8785156 29.9997656 27.4999805L29.9997656 26.4999609C29.9997656 26.2239844 29.7762891 25.9999805 29.4997852 25.9999805 29.2232812 25.9999805 28.9998047 26.2239844 28.9998047 26.4999609L28.9998047 27.4999805C28.9998047 28.3269727 28.3267969 28.9999805 27.4998047 28.9999805L25.4998242 28.9999805C24.672832 28.9999805 23.9998242 28.3269727 23.9998242 27.4999805L23.9998242 21.4999805C23.9998242 20.6729883 24.672832 19.9999805 25.4998242 19.9999805L27.4998047 19.9999805C28.3267969 19.9999805 28.9998047 20.6729883 28.9998047 21.4999805L28.9998047 24 25.4997656 24z"/>
  </g>
</svg>
