<svg xmlns="http://www.w3.org/2000/svg" width="30" height="28" viewBox="0 0 30 28">
  <g>
    <path d="M9.25177734 9.66246094C9.06328125 9.50958984 8.78660156 9.53841797 8.63367188 9.72697266 8.45613281 9.94587891 8.22076172 10.0664063 7.97080078 10.0664063 7.72083984 10.0664063 7.48546875 9.94582031 7.30792969 9.72697266 7.15505859 9.53847656 6.87826172 9.50964844 6.68982422 9.66246094 6.50132813 9.81533203 6.47244141 10.0920703 6.6253125 10.2805664 6.96791016 10.7030273 7.45833984 10.9453125 7.97080078 10.9453125 8.48326172 10.9453125 8.97363281 10.7030273 9.31628906 10.2805664 9.46916016 10.0920703 9.44027344 9.81533203 9.25177734 9.66246094zM5.96244141 7.05386719C5.71974609 7.05386719 5.52298828 7.250625 5.52298828 7.49332031L5.52298828 7.99541016C5.52298828 8.23810547 5.71974609 8.43486328 5.96244141 8.43486328 6.20513672 8.43486328 6.40189453 8.23810547 6.40189453 7.99541016L6.40189453 7.49332031C6.40189453 7.250625 6.20513672 7.05386719 5.96244141 7.05386719zM9.97916016 7.05386719C9.73646484 7.05386719 9.53970703 7.250625 9.53970703 7.49332031L9.53970703 7.99541016C9.53970703 8.23810547 9.73640625 8.43486328 9.97916016 8.43486328 10.2218555 8.43486328 10.4186133 8.23810547 10.4186133 7.99541016L10.4186133 7.49332031C10.4186133 7.250625 10.2218555 7.05386719 9.97916016 7.05386719zM23.8123242 12.1728516C23.6238281 12.0199805 23.3470898 12.0488086 23.1942187 12.2373633 23.0166797 12.4562109 22.78125 12.5767969 22.5313477 12.5767969 22.2813867 12.5767969 22.0460156 12.4562109 21.8684766 12.2373633 21.7156641 12.0488672 21.4388672 12.0199805 21.2503711 12.1728516 21.061875 12.3257227 21.0330469 12.6024609 21.185918 12.790957 21.528457 13.2134766 22.0188867 13.4557031 22.5313477 13.4557031 23.0438086 13.4557031 23.5341797 13.213418 23.8767773 12.790957 24.0296484 12.6024609 24.0008203 12.3257227 23.8123242 12.1728516zM20.5229883 9.56431641C20.280293 9.56431641 20.0835352 9.76107422 20.0835352 10.0037695L20.0835352 10.5058594C20.0835352 10.7485547 20.280293 10.9453125 20.5229883 10.9453125 20.7656836 10.9453125 20.9624414 10.7485547 20.9624414 10.5058594L20.9624414 10.0037695C20.9624414 9.76107422 20.7656836 9.56431641 20.5229883 9.56431641zM24.539707 9.56431641C24.2970117 9.56431641 24.1002539 9.76107422 24.1002539 10.0037695L24.1002539 10.5058594C24.1002539 10.7485547 24.2969531 10.9453125 24.539707 10.9453125 24.7824023 10.9453125 24.9791602 10.7485547 24.9791602 10.5058594L24.9791602 10.0037695C24.9791602 9.76107422 24.7824023 9.56431641 24.539707 9.56431641z"/>
    <path d="M28.7769141,18.2545898 L25.3341211,16.8774609 C25.3154883,16.8700195 25.2982617,16.8605273 25.2808008,16.8513867 C27.6587109,16.310332 28.7848828,15.4055273 28.8348633,15.3645703 C28.95375,15.2671289 29.0131055,15.114668 28.9913672,14.9625 C28.9863867,14.9276953 28.4936719,11.4389648 28.4936719,7.99546875 C28.4936719,4.70777344 25.8189258,2.03302734 22.5312305,2.03302734 C19.2435352,2.03302734 16.5688477,4.70771484 16.5688477,7.99546875 C16.5688477,8.89628906 16.5279492,9.99808594 16.4613867,11.0411133 L15.5020312,11.5208203 L12.6860156,10.1128711 C12.6779297,10.1088281 12.6694336,10.1058984 12.6611719,10.1023828 C12.7951172,9.71197266 12.8827148,9.30029297 12.9148828,8.87308594 C13.5039258,8.69109375 13.933125,8.14142578 13.933125,7.49337891 C13.933125,7.05691406 13.738125,6.66539063 13.4310352,6.40042969 L13.4310352,3.47660156 C13.4310352,2.66888672 13.0229297,1.91314453 12.3536719,1.45904297 C12.1269141,0.616464844 11.3698828,0.024609375 10.4811328,0.024609375 L6.46441406,0.024609375 C4.28414062,0.024609375 2.51033203,1.79841797 2.51033203,3.97869141 L2.51033203,6.40037109 C2.20324219,6.66527344 2.00824219,7.05685547 2.00824219,7.49332031 C2.00824219,8.14136719 2.43744141,8.69103516 3.02648437,8.87302734 C3.13746094,10.3483594 3.89777344,11.6446289 5.02078125,12.4788867 L5.02078125,13.6935352 L1.3865625,14.7837891 C0.557226563,15.0326367 0,15.7815234 0,16.6474219 L0,21.5517773 C0,21.7944727 0.196757813,21.9912305 0.439453125,21.9912305 L0.502089844,21.9912305 L0.502089844,27.0747656 C0.502089844,27.3174609 0.698847656,27.5142188 0.941542969,27.5142188 C1.18423828,27.5142188 1.38099609,27.3174609 1.38099609,27.0747656 L1.38099609,21.9912305 L3.01253906,21.9912305 L3.01253906,27.0747656 C3.01253906,27.3174609 3.20929688,27.5142188 3.45199219,27.5142188 C3.6946875,27.5142188 3.89144531,27.3174609 3.89144531,27.0747656 L3.89144531,19.4974219 C3.89144531,19.1119922 3.77841797,18.73875 3.56466797,18.418125 L2.81349609,17.2913672 C2.67884766,17.0893945 2.40597656,17.0349023 2.20412109,17.1694336 C2.00214844,17.3040234 1.94759766,17.5768945 2.08224609,17.7788672 L2.83341797,18.9056836 C2.95060547,19.0814648 3.01259766,19.2860742 3.01259766,19.4974219 L3.01259766,21.1123242 L0.941542969,21.1123242 L0.87890625,21.1123242 L0.87890625,16.6474219 C0.87890625,16.1726367 1.18441406,15.7620703 1.63921875,15.6256055 L3.14783203,15.1730273 C3.67318359,17.3727539 5.66835938,18.9786914 7.97080078,18.9786914 C8.79796875,18.9786914 9.60128906,18.7747266 10.3206445,18.3866016 C10.5835547,18.7452539 11.0075977,18.9786914 11.4853711,18.9786914 L11.5480078,18.9786914 L11.5480078,19.0413281 C11.5480078,20.5145508 12.3584766,21.8012695 13.5563672,22.4814844 L13.5563672,23.1982617 C13.5563672,23.2252148 13.5391406,23.2491211 13.5135352,23.2576758 L11.8742578,23.8041211 C11.0784961,24.069375 10.5438281,24.8111719 10.5438281,25.65 L10.5438281,27.0747656 C10.5438281,27.3174609 10.7405859,27.5142187 10.9832813,27.5142187 C11.2259766,27.5142187 11.4227344,27.3174609 11.4227344,27.0747656 L11.4227344,25.65 C11.4227344,25.1900977 11.7158789,24.7833398 12.152168,24.6379687 L12.6342188,24.4772461 C13.2719531,25.4283398 14.3445117,26.0080078 15.5020313,26.0080078 C16.6607813,26.0080078 17.7323438,25.4286914 18.3699609,24.4773047 L18.8518945,24.6379687 C19.2881836,24.7833984 19.5813281,25.1900977 19.5813281,25.65 L19.5813281,27.0747656 C19.5813281,27.3174609 19.7780859,27.5142187 20.0207813,27.5142187 C20.2634766,27.5142187 20.4602344,27.3174609 20.4602344,27.0747656 L20.4602344,25.65 C20.4602344,24.8111719 19.9255664,24.069375 19.1298047,23.8041797 L17.4905273,23.2577344 C17.4649219,23.2491797 17.4476953,23.225332 17.4476953,23.1983203 L17.4476953,22.481543 C18.3445898,21.9722461 19.023457,21.1228711 19.3082227,20.1096094 C20.1386719,20.9785547 21.2985352,21.4892578 22.5311719,21.4892578 C24.4771875,21.4892578 26.184668,20.2313086 26.772832,18.3997266 L28.4503125,19.0706836 C28.8577148,19.2336328 29.120918,19.6224609 29.120918,20.0611523 L29.120918,22.1165625 L29.0582813,22.1165625 L27.489375,22.1165625 L27.489375,21.5518359 C27.489375,21.3091406 27.2926172,21.1123828 27.0499219,21.1123828 C26.8072266,21.1123828 26.6104688,21.3091406 26.6104688,21.5518359 L26.6104688,27.0748242 C26.6104688,27.3175195 26.8072266,27.5142773 27.0499219,27.5142773 C27.2926172,27.5142773 27.489375,27.3175195 27.489375,27.0748242 L27.489375,22.9954688 L28.6188281,22.9954688 L28.6188281,27.0748242 C28.6188281,27.3175195 28.8155859,27.5142773 29.0582813,27.5142773 C29.3009766,27.5142773 29.4977344,27.3175195 29.4977344,27.0748242 L29.4977344,22.9954688 L29.5603711,22.9954688 C29.6769141,22.9954688 29.7886523,22.9491797 29.8710938,22.8667969 C29.9535352,22.7843555 29.9998242,22.6726172 29.9998242,22.5560156 L29.9998242,20.0611523 C30,19.2608789 29.5199414,18.5517773 28.7769141,18.2545898 Z M17.4478125,7.99541016 C17.4478125,5.19234375 19.7282813,2.911875 22.5313477,2.911875 C25.3344141,2.911875 27.6148242,5.19234375 27.6148242,7.99541016 C27.6148242,10.9463672 27.9701953,13.9294336 28.0856836,14.8203516 C27.691875,15.0779883 26.6835938,15.6454102 24.9791602,16.0183008 L24.9791602,15.3189844 C25.2125977,15.1866797 25.4360742,15.0356836 25.6461914,14.8658789 C26.510918,14.1669141 27.1219922,13.1879883 27.3666797,12.1095117 C27.4482422,11.7501563 27.4896094,11.3795508 27.4896094,11.0080078 C27.4896094,8.52416016 25.6933008,8.16755859 23.9561133,7.82267578 C22.8507422,7.60324219 21.7077539,7.37630859 20.7975586,6.64816406 C20.6656641,6.54263672 20.4849609,6.52207031 20.3326758,6.59525391 C20.1803906,6.6684375 20.0835938,6.82236328 20.0835938,6.99134766 C20.0835938,7.00300781 20.0644336,8.15929687 18.4081055,8.57337891 C18.1726172,8.63226562 18.0294727,8.87085937 18.0883594,9.10634766 C18.1471875,9.34183594 18.3858398,9.48486328 18.6212695,9.42609375 C20.0075977,9.07951172 20.5731445,8.30179687 20.8037695,7.7175 C21.7567383,8.28222656 22.8242578,8.49410156 23.7849609,8.68482422 C25.6417383,9.0534375 26.6107031,9.32419922 26.6107031,11.0080664 C26.6107031,11.3142773 26.5766602,11.6194336 26.5095703,11.9150977 C26.3083008,12.8018555 25.8055078,13.6070508 25.0936523,14.1824414 C24.3612305,14.7744727 23.4751758,15.0873633 22.5313477,15.0873633 C21.670957,15.0873633 20.8521094,14.823457 20.1571875,14.3247656 C19.9025977,13.6299023 19.4936719,12.9941602 18.954082,12.470332 L18.954082,10.5059766 C18.954082,10.3536328 18.8752148,10.2121875 18.7456641,10.1321484 C18.6161133,10.0521094 18.4543945,10.0447852 18.3181055,10.1129297 L17.3692969,10.5873047 C17.4213281,9.67212891 17.4478125,8.80201172 17.4478125,7.99541016 Z M18.0751758,11.2168945 L18.0751758,12.8073047 L16.484707,12.0121289 L18.0751758,11.2168945 Z M12.9290039,11.2168945 L14.5194141,12.0121289 L12.9290039,12.8073047 L12.9290039,11.2168945 Z M10.5438281,16.0287891 L10.5438281,16.4461523 C10.2291797,16.7178516 10.0417383,17.1154688 10.0417383,17.535 C9.41583984,17.9047852 8.70480469,18.0997852 7.97074219,18.0997852 C6.05917969,18.0997852 4.40537109,16.7545898 3.99164063,14.9199023 L5.07732422,14.5941797 C5.34515625,15.9469922 6.54052734,16.970332 7.97080078,16.970332 C9.10652344,16.970332 10.0937109,16.3248047 10.5864844,15.3817383 C10.5583008,15.5951367 10.5438281,15.8112305 10.5438281,16.0287891 Z M5.89980469,14.0197266 L5.89980469,13.0017773 C6.53039062,13.2929883 7.231875,13.4557031 7.97080078,13.4557031 C8.70966797,13.4557031 9.41121094,13.2929297 10.0417969,13.0018359 L10.0417969,14.0203711 C10.0417969,15.1623047 9.11279297,16.0913672 7.97080078,16.0913672 C6.83074219,16.0913672 5.90302734,15.1653516 5.89992187,14.0259961 C5.89992187,14.0238867 5.89980469,14.0217773 5.89980469,14.0197266 Z M7.97080078,12.5767969 C5.72138672,12.5767969 3.89144531,10.7468555 3.89144531,8.4975 C3.89144531,8.25480469 3.6946875,8.05804688 3.45199219,8.05804688 C3.140625,8.05804688 2.88726563,7.8046875 2.88726563,7.49332031 C2.88726563,7.18195313 3.14056641,6.92859375 3.45199219,6.92859375 L4.45617188,6.92859375 C4.6453125,6.92859375 4.81324219,6.80759766 4.87306641,6.628125 L5.27642578,5.41804688 C6.28628906,5.39525391 9.41689453,5.25328125 11.1798047,4.37179687 C11.3968945,4.26322266 11.4849023,3.99931641 11.3763281,3.78222656 C11.2678125,3.56513672 11.0039063,3.47712891 10.7867578,3.58570313 C8.89529297,4.53140625 4.99728516,4.54347656 4.95814453,4.54347656 C4.76900391,4.54353516 4.60107422,4.66453125 4.54130859,4.84400391 L4.13941406,6.04974609 L3.45199219,6.04974609 C3.43101563,6.04974609 3.41015625,6.05044922 3.38935547,6.05132813 L3.38935547,3.97869141 C3.38935547,2.28304688 4.76888672,0.903515625 6.46453125,0.903515625 L10.48125,0.903515625 C11.0060156,0.903515625 11.446875,1.28173828 11.529668,1.80275391 C11.5507031,1.93517578 11.6310352,2.05072266 11.7478125,2.11658203 C12.2439844,2.39642578 12.5522461,2.9175 12.5522461,3.47654297 L12.5522461,6.05121094 C12.5314453,6.05027344 12.5106445,6.04962891 12.4896094,6.04962891 L11.9875195,6.04962891 C11.7448242,6.04962891 11.5480664,6.24638672 11.5480664,6.48908203 C11.5480664,6.73177734 11.7448242,6.92853516 11.9875195,6.92853516 L12.4896094,6.92853516 C12.8009766,6.92853516 13.0543359,7.18183594 13.0543359,7.49326172 C13.0543359,7.8046875 12.8010352,8.05798828 12.4896094,8.05798828 C12.2469141,8.05798828 12.0501563,8.25474609 12.0501563,8.49744141 C12.0501563,10.7467969 10.2202148,12.5767969 7.97080078,12.5767969 Z M10.9206445,14.0204883 L10.9206445,12.4788867 C11.3578125,12.1541016 11.7399023,11.7595898 12.0500977,11.3112305 L12.0500977,12.4702734 C11.5579688,12.9480469 11.1743555,13.5188086 10.9175391,14.1427148 C10.9192383,14.1021094 10.9206445,14.0614453 10.9206445,14.0204883 Z M17.4930469,24.1849219 C17.0092383,24.775957 16.2824414,25.129043 15.5020898,25.129043 C14.7226758,25.129043 13.9954102,24.7757227 13.5114258,24.1848633 L13.7915039,24.0915234 C14.176582,23.9632031 14.435332,23.6041992 14.435332,23.1983203 L14.435332,22.8480469 C14.7749414,22.9433789 15.1324805,22.9954688 15.5021484,22.9954688 C15.8718164,22.9954688 16.2293555,22.9433789 16.5689648,22.8480469 L16.5689648,23.1983203 C16.5689063,23.6041406 16.8275977,23.9631445 17.2127344,24.0914648 L17.4930469,24.1849219 Z M19.0167773,18.0997852 C18.774082,18.0997852 18.5773242,18.296543 18.5773242,18.5392383 L18.5773242,18.9761719 C18.5773242,18.9799805 18.5772656,18.9837891 18.5773242,18.9875977 L18.5773242,19.0413281 C18.5772656,20.7369727 17.1977344,22.1165039 15.5020898,22.1165039 C13.8064453,22.1165039 12.4269727,20.7369727 12.4269727,19.0413281 L12.4269727,18.5392383 C12.4269727,18.296543 12.2302148,18.0997852 11.9875195,18.0997852 L11.4854297,18.0997852 C11.1740625,18.0997852 10.9207031,17.8464844 10.9207031,17.5350586 C10.9207031,17.334668 11.0267578,17.1533203 11.2043555,17.0499609 C11.2440234,17.026875 11.2785352,16.9976367 11.308418,16.9645898 C12.3947461,16.933125 15.9161719,16.7286914 18.2305664,15.4061719 C18.4412695,15.2857617 18.5145117,15.0173437 18.3941016,14.806582 C18.2736914,14.5958203 18.0051563,14.5226367 17.7945117,14.6430469 C15.7670508,15.8015625 12.5811914,16.0335352 11.422793,16.0798828 L11.422793,16.0287891 C11.422793,15.2114648 11.670293,14.4199219 12.1187695,13.7525977 C12.1538672,13.8082031 12.2008008,13.8564844 12.2585742,13.892168 C12.3291797,13.9357617 12.4092773,13.957793 12.4896094,13.957793 C12.5567578,13.957793 12.624082,13.9423828 12.6861328,13.9113867 L15.5021484,12.5033789 L18.3181641,13.9113867 C18.3802148,13.9423828 18.4475391,13.957793 18.5146875,13.957793 C18.5950781,13.957793 18.6751758,13.9357617 18.7457227,13.892168 C18.8034375,13.8564844 18.8503711,13.8081445 18.8854688,13.7525977 C19.3339453,14.4199219 19.5814453,15.2114648 19.5814453,16.0287891 L19.5814453,16.6701562 C19.5814453,16.8266016 19.6645898,16.9712695 19.7998828,17.0499609 C19.9775391,17.1533789 20.0835937,17.334668 20.0835937,17.5350586 C20.0835937,17.8464258 19.8302344,18.0997852 19.5188672,18.0997852 L19.0167773,18.0997852 L19.0167773,18.0997852 Z M22.5313477,20.6102344 C21.314707,20.6102344 20.185957,19.9908398 19.5288867,18.978457 C20.3202539,18.9730078 20.9624414,18.3277148 20.9624414,17.5351172 C20.9624414,17.1155859 20.775,16.7179102 20.4603516,16.4462109 L20.4603516,16.0288477 C20.4603516,15.8519531 20.4508008,15.6760547 20.4321094,15.5017969 C21.0837305,15.8073047 21.7951758,15.9661523 22.5313477,15.9661523 C23.0671875,15.9661523 23.5971094,15.8773828 24.1002539,15.7095703 L24.1002539,16.3531055 C24.1002539,16.9468359 24.4564453,17.4730078 25.0076953,17.6934961 L25.955332,18.0725391 C25.5011719,19.5741797 24.1142578,20.6102344 22.5313477,20.6102344 Z"/>
    <path d="M16.783125,19.7041992 C16.5946289,19.5513281 16.3178906,19.5801562 16.1650195,19.7687109 C15.9874219,19.9876172 15.7520508,20.1081445 15.5021484,20.1081445 C15.2522461,20.1081445 15.0168164,19.9876172 14.8392773,19.7687109 C14.6864063,19.5802148 14.4096094,19.5513281 14.2211719,19.7041992 C14.0326758,19.8570703 14.0037891,20.1338086 14.1566602,20.3223047 C14.4993164,20.744707 14.9896875,20.9870508 15.5021484,20.9870508 C16.0146094,20.9870508 16.5049805,20.7447656 16.8476367,20.3223633 C17.0004492,20.1338672 16.9715625,19.8570703 16.783125,19.7041992 Z"/>
    <circle cx="14.004" cy="18.039" r="1"/>
    <circle cx="16.992" cy="18.039" r="1"/>
  </g>
</svg>
