<svg xmlns="http://www.w3.org/2000/svg" width="30" height="30" viewBox="0 0 30 30">
  <g>
    <path d="M5.53147059,4.63058824 C5.16882353,4.63058824 4.87411765,4.33588235 4.87411765,3.97323529 C4.87411765,3.61058824 5.16882353,3.31588235 5.53147059,3.31588235 C5.89411765,3.31588235 6.18882353,3.61058824 6.18882353,3.97323529 C6.18882353,4.33588235 5.89411765,4.63058824 5.53147059,4.63058824 Z M5.53147059,3.74823529 C5.40705882,3.74823529 5.30647059,3.84882353 5.30647059,3.97323529 C5.30647059,4.22117647 5.75647059,4.22117647 5.75647059,3.97323529 C5.75647059,3.84882353 5.65588235,3.74823529 5.53147059,3.74823529 Z"/>
    <path d="M2.43970588,7.91911765 C1.45676471,7.91911765 0.423529412,6.45970588 0.377647059,6.39352941 C0.219705882,6.16852941 0.168529412,5.90823529 0.227647059,5.64 C0.324705882,5.20411765 0.716470588,4.78588235 1.39411765,4.39411765 C2.22176471,3.91764706 3.80117647,2.42647059 4.57588235,1.57764706 C5.51294118,0.550588235 7.16911765,0.243529412 8.60205882,0.831176471 C8.82794118,0.923823529 8.93558824,1.18147059 8.84294118,1.40647059 C8.75117647,1.63323529 8.49088235,1.74 8.26852941,1.64823529 C7.04294118,1.14529412 5.81205882,1.53176471 5.22794118,2.17235294 C4.53352941,2.93117647 2.82705882,4.58735294 1.83529412,5.16 C1.18323529,5.53411765 1.09941176,5.78558824 1.08882353,5.83147059 C1.48058824,6.43058824 2.175,7.08794118 2.45117647,7.035 C2.62764706,7.00588235 2.86323529,6.87176471 3.11117647,6.73147059 C3.55676471,6.47823529 4.11617647,6.16147059 4.77970588,6.18970588 C5.61,6.225 7.05176471,6.01764706 7.55205882,5.32411765 C7.69411765,5.12647059 7.97029412,5.08058824 8.16705882,5.22441176 C8.36558824,5.36647059 8.41058824,5.64264706 8.26764706,5.83941176 C7.33764706,7.13029412 5.00735294,7.07735294 4.74529412,7.07294118 C4.29882353,7.05617647 3.93088235,7.28205882 3.54617647,7.49911765 C3.22852941,7.68 2.92764706,7.85029412 2.59588235,7.90588235 C2.54382353,7.91470588 2.49264706,7.91911765 2.43970588,7.91911765 Z"/>
    <path d="M8.81911765,4.19823529 C8.67617647,4.19823529 8.53676471,4.12852941 8.45117647,4.00058824 C8.31705882,3.79764706 8.37264706,3.52323529 8.57558824,3.38911765 C9.39264706,2.84911765 9.94588235,1.90058824 10.0702941,1.24411765 C10.0923529,1.12411765 10.1002941,1.01470588 10.0941176,0.921176471 C9.48529412,1.07647059 8.90647059,1.65529412 8.57382353,1.98705882 C8.44588235,2.11588235 8.34441176,2.21294118 8.27823529,2.26323529 C8.08323529,2.40970588 7.80705882,2.36823529 7.66147059,2.17411765 C7.515,1.97823529 7.55470588,1.70294118 7.74970588,1.55647059 C7.79558824,1.52205882 7.86264706,1.45147059 7.95,1.36323529 C8.42735294,0.886764706 9.315,0 10.3923529,0 C10.5361765,0 10.6702941,0.0697058824 10.7532353,0.187941176 C10.9667647,0.492352941 11.0294118,0.914117647 10.9367647,1.40823529 C10.7479412,2.40176471 9.97764706,3.51970588 9.06264706,4.125 C8.98764706,4.17441176 8.90294118,4.19823529 8.81911765,4.19823529 Z"/>
    <path d="M23.3673529 29.5252941L21.5841176 29.5252941C21.4614706 29.5252941 21.345 29.4741176 21.2611765 29.385 21.1782353 29.295 21.135 29.1758824 21.1438235 29.0532353 21.1473529 29.0135294 21.4217647 25.11 21.3882353 23.9911765 21.3547059 22.8882353 21.3229412 21.8461765 20.7335294 21.1976471L20.5438235 20.9955882C19.7629412 20.1732353 18.4552941 18.7985294 18.5902941 15.2867647 18.6 15.0441176 18.7623529 14.8473529 19.0491176 14.8632353 19.2917647 14.8729412 19.4823529 15.0776471 19.4726471 15.3220588 19.3508824 18.4614706 20.4538235 19.6208824 21.1835294 20.3885294L21.3855882 20.6047059C22.1938235 21.4932353 22.2326471 22.7497059 22.2697059 23.9647059 22.2970588 24.9 22.1285294 27.5523529 22.0552941 28.6438235L22.9270588 28.6438235C22.905 27.8117647 22.7885294 25.9561765 22.6147059 24.5947059 22.41 22.9826471 22.7117647 20.9938235 23.3858824 19.5282353L23.6558824 18.9555882C24.2073529 17.7952941 24.8329412 16.4797059 25.0632353 14.6902941 25.3094118 12.7861765 24.6247059 11.2155882 23.0823529 10.1497059 21.9211765 9.345 19.9129412 9.69 18.3 9.96705882 17.8985294 10.0358824 17.5155882 10.1011765 17.1652941 10.1479412 15.1985294 10.4073529 13.4258824 10.0058824 12.6873529 9.47294118 11.9752941 8.95941176 10.8061765 7.63323529 10.4611765 6.47911765L10.2679412 5.82264706C10.0182353 4.96147059 9.67676471 3.78176471 9.43147059 3.41470588 9.29647059 3.21264706 9.35117647 2.93823529 9.55411765 2.80323529 9.75529412 2.66823529 10.0297059 2.72205882 10.1655882 2.92588235 10.4629412 3.37235294 10.7470588 4.30676471 11.1158824 5.57823529L11.3055882 6.22676471C11.5773529 7.13117647 12.6105882 8.33029412 13.2044118 8.75823529 13.7011765 9.11735294 15.225 9.51529412 17.0497059 9.27264706 17.3902941 9.22764706 17.7617647 9.16411765 18.1508824 9.09794118 19.9226471 8.79352941 22.1267647 8.41588235 23.5835294 9.42441176 25.4152941 10.6914706 26.2288235 12.5505882 25.9385294 14.8041176 25.6905882 16.7329412 25.0032353 18.1755882 24.4517647 19.335L24.1870588 19.8988235C23.5782353 21.225 23.3038235 23.025 23.49 24.4844118 23.7 26.1264706 23.8464706 28.6852941 23.8058824 29.1273529 23.7855882 29.3514706 23.5958824 29.5252941 23.3673529 29.5252941zM11.9258824 29.5252941L10.0773529 29.5252941C9.95029412 29.5252941 9.83029412 29.4705882 9.74558824 29.3752941 9.66176471 29.28 9.62294118 29.1529412 9.63970588 29.0267647 9.645 28.9923529 10.0914706 25.5441176 10.0914706 24.3626471 10.0914706 23.5252941 9.705 22.1320588 9.00617647 20.4397059 8.55441176 19.3491176 8.12911765 17.0311765 8.23941176 15.4482353 8.25705882 15.2047059 8.47058824 15.0185294 8.71058824 15.0388235 8.95323529 15.0564706 9.13588235 15.2673529 9.12 15.51 9.02294118 16.905 9.41735294 19.125 9.82147059 20.1017647 10.3473529 21.3723529 10.9747059 23.1441176 10.9747059 24.3626471 10.9747059 25.3323529 10.7047059 27.6238235 10.5794118 28.6429412L11.4864706 28.6429412C11.4882353 28.2952941 11.4935294 27.8320588 11.4979412 27.3114706 11.5164706 25.4938235 11.5394118 23.0064706 11.4917647 22.2926471 11.4379412 21.4879412 11.7502941 19.6429412 12.0017647 18.1605882 12.0961765 17.5994118 12.1808824 17.0991176 12.2302941 16.7470588 12.2638235 16.5052941 12.5020588 16.3429412 12.7270588 16.3702941 12.9688235 16.4038235 13.1373529 16.6261765 13.1038235 16.8670588 13.0535294 17.2252941 12.9679412 17.7352941 12.8708824 18.3070588 12.6405882 19.6676471 12.3255882 21.5311765 12.3723529 22.2326471 12.4226471 22.98 12.3979412 25.4867647 12.3802941 27.3176471 12.3732353 28.1064706 12.3661765 28.7629412 12.3679412 29.0797059 12.3688235 29.1979412 12.3220588 29.3108824 12.2391176 29.3929412 12.1561765 29.4785294 12.0432353 29.5252941 11.9258824 29.5252941z"/>
    <path d="M15.7358824 19.5167647C14.1344118 19.5167647 12.7173529 19.2829412 12.4491176 19.2361765 12.2091176 19.1947059 12.0485294 18.9652941 12.0908824 18.7261765 12.1323529 18.4852941 12.3644118 18.3185294 12.6008824 18.3679412 14.1670588 18.6423529 17.5552941 18.9158824 19.1770588 17.9947059 19.3879412 17.8720588 19.6579412 17.9470588 19.7788235 18.1605882 19.8997059 18.3723529 19.8255882 18.6423529 19.6129412 18.7623529 18.5779412 19.35 17.0911765 19.5167647 15.7358824 19.5167647zM8.66294118 18.2638235C8.56764706 18.2638235 8.47147059 18.2329412 8.39029412 18.1702941 7.59882353 17.5508824 6.12529412 16.3958824 6.24352941 13.5379412 6.27088235 12.8841176 6.33617647 12.2770588 6.40058824 11.6894118 6.58058824 10.0270588 6.73588235 8.59147059 5.90558824 6.93264706 5.79794118 6.71470588 5.88529412 6.45088235 6.10323529 6.34147059 6.32205882 6.23205882 6.58588235 6.32029412 6.69529412 6.53823529 7.64029412 8.42911765 7.46470588 10.0588235 7.27764706 11.7838235 7.21588235 12.3564706 7.15147059 12.9494118 7.12588235 13.5732353 7.02529412 15.9802941 8.22 16.9155882 8.93470588 17.475 9.12617647 17.625 9.15970588 17.9020588 9.00970588 18.0944118 8.92323529 18.2064706 8.79352941 18.2638235 8.66294118 18.2638235zM17.9311765 10.0217647L17.9126471 10.0217647C14.145 9.86029412 13.0976471 7.15764706 12.5347059 5.70529412L12.4729412 5.54647059C11.85 3.93705882 11.5067647 3.05029412 10.3482353 2.49617647 10.1285294 2.39117647 10.0358824 2.12735294 10.1408824 1.90764706 10.2458824 1.68794118 10.5105882 1.59529412 10.7294118 1.70029412 12.2038235 2.40529412 12.6617647 3.58941176 13.2961765 5.22794118L13.3570588 5.38676471C14.0364706 7.13647059 15.0061765 9.01411765 17.9505882 9.13941176 18.1932353 9.15 18.3829412 9.35558824 18.3732353 9.59911765 18.3617647 9.83647059 18.1658824 10.0217647 17.9311765 10.0217647zM28.7241176 22.7294118C27.7685294 22.7294118 26.6867647 22.2079412 25.9164706 21.3652941 25.1779412 20.5570588 24.8426471 19.5679412 24.9952941 18.6538235 25.2379412 17.1979412 25.5141176 15.5470588 25.1364706 14.9947059 24.9988235 14.7935294 25.0491176 14.5191176 25.2511765 14.3823529 25.4514706 14.2447059 25.7258824 14.2958824 25.8635294 14.4970588 26.4035294 15.2858824 26.2244118 16.6482353 25.8652941 18.7994118 25.7179412 19.6844118 26.2420588 20.4141176 26.5676471 20.7705882 26.9179412 21.1544118 27.3529412 21.4570588 27.795 21.6423529 27.4923529 21.0167647 27.3370588 20.0920588 27.7764706 18.8002941 28.4391176 16.8520588 28.8326471 13.5079412 27.8514706 12.2947059 26.8147059 11.0135294 25.5361765 10.9861765 24.42 11.1344118 24.1791176 11.1697059 23.9576471 10.9958824 23.925 10.7532353 23.8941176 10.5123529 24.0635294 10.2908824 24.3061765 10.2582353 25.4841176 10.1055882 27.2038235 10.0923529 28.5370588 11.7397059 29.9055882 13.4302941 29.1785294 17.4185294 28.6120588 19.0844118 28.0032353 20.8747059 28.7761765 21.6661765 29.1361765 21.9229412 29.2879412 22.0305882 29.355 22.2220588 29.3047059 22.4011765 29.2544118 22.5794118 29.0982353 22.7082353 28.9129412 22.7223529 28.8511765 22.7267647 28.7876471 22.7294118 28.7241176 22.7294118z"/>
  </g>
</svg>
