<svg xmlns="http://www.w3.org/2000/svg" width="30" height="30" viewBox="0 0 30 30">
  <g>
    <path d="M7.73724609 7.40648438C5.86482422 7.40648438 4.34150391 8.92980469 4.34150391 10.8022266 4.34150391 11.0983008 4.5815625 11.3383594 4.87763672 11.3383594 5.17371094 11.3383594 5.41376953 11.0983008 5.41376953 10.8022266 5.41376953 9.52101563 6.45609375 8.47869141 7.73730469 8.47869141 9.01851562 8.47869141 10.0608398 9.52107422 10.0608398 10.8022266 10.0608398 11.0983008 10.3008984 11.3383594 10.5969727 11.3383594 10.8930469 11.3383594 11.1331055 11.0983008 11.1331055 10.8022266 11.1329883 8.92980469 9.60966797 7.40648438 7.73724609 7.40648438zM22.2627539 7.40654297C20.390332 7.40654297 18.8670117 8.92986328 18.8670117 10.8022852 18.8670117 11.0983594 19.1070703 11.338418 19.4031445 11.338418 19.6992188 11.338418 19.9392773 11.0983594 19.9392773 10.8022852 19.9392773 9.52107422 20.9816016 8.47875 22.2628125 8.47875 23.5440234 8.47875 24.5863477 9.52107422 24.5863477 10.8022852 24.5863477 11.0983594 24.8264062 11.338418 25.1224805 11.338418 25.4185547 11.338418 25.6586133 11.0983594 25.6586133 10.8022852 25.6585547 8.92986328 24.1352344 7.40654297 22.2627539 7.40654297zM22.0767773 12.1207031C21.8765625 12.037793 21.6458203 12.0836133 21.4925391 12.2369531 19.7583984 13.9714453 17.4526758 14.9266406 15.0000586 14.9266406 12.5474414 14.9266406 10.2416016 13.9714453 8.50710938 12.2369531 8.35376953 12.0835547 8.12320312 12.037793 7.92287109 12.1207031 7.72253906 12.2036719 7.59193359 12.3991992 7.59193359 12.6159961L7.59193359 15.9391406C7.59193359 18.1822852 8.59154297 20.2792383 10.3339453 21.6919922 11.6473242 22.759043 13.3045313 23.3466797 15.0002344 23.3466797 16.6959961 23.3466797 18.3530859 22.759043 19.6659961 21.6923437 19.8674414 21.5289844 20.0601563 21.3552539 20.2377539 21.1768945 21.6371484 19.7783789 22.4077734 17.9182031 22.4077734 15.9391406L22.4077734 12.6159961C22.407832 12.3991992 22.277168 12.2037305 22.0767773 12.1207031zM15.0002344 22.2744727C13.7128711 22.2745312 12.452168 21.8778516 11.3994141 21.1505273 11.8491797 20.6010352 12.5248242 20.2730273 13.2510352 20.2730273 13.7707617 20.2730273 14.2648242 20.4365039 14.6798438 20.7458203 14.8699219 20.8874414 15.1304297 20.8874414 15.3205078 20.7458203 15.7355273 20.4365039 16.2292969 20.2730273 16.7486133 20.2730273 17.4747656 20.2730273 18.1506445 20.6010352 18.6008203 21.1506445 17.548418 21.877793 16.2877148 22.2744727 15.0002344 22.2744727zM19.4789063 20.4195117C19.4625586 20.4360352 19.4453906 20.452207 19.42875 20.4685547 18.7771875 19.6743164 17.7991406 19.2009375 16.7487305 19.2009375 16.1262891 19.2009375 15.5288672 19.3633594 15.000293 19.6735547 14.4716016 19.3633008 13.8739453 19.2009375 13.2511523 19.2009375 12.2003906 19.2009375 11.2223438 19.6744922 10.57125 20.4689648 9.44355469 19.3694531 8.76984375 17.8993945 8.67585938 16.3216992 10.5256641 17.7728906 12.7627734 18.4989844 15.0001758 18.4989844 17.2371094 18.4989844 19.4736328 17.773125 21.3230273 16.3225195 21.2311523 17.8706836 20.585625 19.3133789 19.4789063 20.4195117zM21.3355078 14.8955273C17.797207 18.2709375 12.2031445 18.2709375 8.66408203 14.8955273L8.66408203 13.809082C10.4638477 15.2286914 12.6728906 15.9989062 15.0000586 15.9989062 17.3273438 15.9989062 19.5360352 15.2289258 21.3354492 13.8091406L21.3354492 14.8955273 21.3355078 14.8955273z"/>
    <path d="M14.9999414,0 C6.72896484,0 0,6.72896484 0,15.0000586 C0,23.2711523 6.72896484,30 14.9999414,30 C23.2710352,30 30,23.2710352 30,15.0000586 C30,6.72896484 23.2710352,0 14.9999414,0 Z M14.9999414,28.927793 C7.32017578,28.927793 1.07220703,22.6798242 1.07220703,15.0000586 C1.07220703,7.32023438 7.32017578,1.07220703 14.9999414,1.07220703 C22.6797656,1.07220703 28.927793,7.32017578 28.927793,15.0000586 C28.927793,22.6797656 22.6797656,28.927793 14.9999414,28.927793 Z"/>
  </g>
</svg>
