<svg xmlns="http://www.w3.org/2000/svg" xmlns:xlink="http://www.w3.org/1999/xlink" width="247" height="150" viewBox="0 0 247 150">
  <defs>
    <rect id="machine-1-b" width="116.12" height="81.095" x="78.597" y="21.201" rx="10"/>
    <rect id="machine-1-a" width="197.759" height="134.099" x="9.127" y="8.481"/>
    <mask id="machine-1-c" width="197.759" height="134.099" x="0" y="0" fill="#fff">
      <use xlink:href="#machine-1-a"/>
    </mask>
  </defs>
  <g fill="none" fill-rule="evenodd">
    <g fill-rule="nonzero" transform="rotate(90 108 138.5)">
      <path fill="#ACABB1" d="M7.64885496,30.625 C7.64885496,33.0412895 9.5969771,35 12,35 C14.4030229,35 16.351145,33.0412895 16.351145,30.625 L16.351145,30.3947368 L7.64885496,30.3947368 L7.64885496,30.625 Z"/>
      <polygon fill="#565659" points="12 27.632 10.626 27.632 7.649 27.632 7.649 30.395 16.351 30.395 16.351 27.632 13.374 27.632"/>
      <path fill="#FFE98F" d="M10.6259542,18.6885263 C8.5138626,18.0854211 6.96183206,16.1301184 6.96183206,13.8157895 L9.70992366,13.8157895 C9.70992366,15.0854605 10.7372519,16.1184211 12,16.1184211 L12,0 C5.39157252,0 0.034351145,5.3865 0.034351145,12.03125 C0.034351145,16.4897895 2.44635115,20.3816974 6.0298626,22.4602368 L7.64885496,27.6315789 L10.6259542,27.6315789 L10.6259542,18.6885263 Z"/>
      <path fill="#FFDA44" d="M12,0 L12,16.1184211 C13.2627481,16.1184211 14.2900763,15.0854605 14.2900763,13.8157895 L17.0381679,13.8157895 C17.0381679,16.1301184 15.4861374,18.0854211 13.3740458,18.6885263 L13.3740458,27.6315789 L16.351145,27.6315789 L17.9701374,22.4602368 C21.5536489,20.3817895 23.9656489,16.4898816 23.9656489,12.03125 C23.9656489,5.3865 18.6084275,0 12,0 Z"/>
      <path fill="#FF9811" d="M9.70992366,13.8157895 L6.96183206,13.8157895 C6.96183206,16.1301184 8.5138626,18.0854211 10.6259542,18.6885263 L10.6259542,27.6315789 L13.3740458,27.6315789 L13.3740458,18.6885263 C15.4861374,18.0854211 17.0381679,16.1301184 17.0381679,13.8157895 L14.2900763,13.8157895 C14.2900763,15.0854605 13.2627481,16.1184211 12,16.1184211 C10.7372519,16.1184211 9.70992366,15.0854605 9.70992366,13.8157895 Z"/>
    </g>
    <rect width="215" height="150" fill="#4A4A4A" rx="10"/>
    <use fill="#FFF" xlink:href="#machine-1-b"/>
    <rect width="115.12" height="80.095" x="79.097" y="21.701" stroke="#979797" rx="10"/>
    <rect width="110.542" height="11.661" x="81.639" y="23.852" fill="#CDDBEB" rx="5.83"/>
    <ellipse cx="87.471" cy="29.947" fill="#4A4A4A" stroke="#979797" rx="1.775" ry="1.855"/>
    <ellipse cx="94.063" cy="29.947" fill="#4A4A4A" stroke="#979797" rx="1.775" ry="1.855"/>
    <ellipse cx="100.654" cy="29.947" fill="#4A4A4A" stroke="#979797" rx="1.775" ry="1.855"/>
    <rect width="19.269" height="2.65" x="85.696" y="46.113" fill="#D8D8D8"/>
    <rect width="29.41" height="2.65" x="85.696" y="50.883" fill="#D8D8D8"/>
    <rect width="24.34" height="2.65" x="85.696" y="55.654" fill="#FF8686"/>
    <g fill="#D8D8D8" opacity=".424" transform="translate(5.07 5.3)">
      <ellipse cx="3.55" cy="3.71" rx="2.535" ry="2.65"/>
      <ellipse cx="202.323" cy="2.65" rx="2.535" ry="2.65"/>
      <ellipse cx="2.535" cy="136.749" rx="2.535" ry="2.65"/>
      <ellipse cx="201.309" cy="135.689" rx="2.535" ry="2.65"/>
    </g>
    <use stroke="#979797" stroke-dasharray="1 3 3 2" stroke-width="2" mask="url(#machine-1-c)" opacity=".663" xlink:href="#machine-1-a"/>
    <g transform="translate(22.818 21.201)">
      <rect width="30.932" height="53.004" fill="#1C4A51" rx="4"/>
      <rect width="20.79" height="11.661" x="5.071" y="4.77" fill="#FB0" rx="4"/>
      <rect width="20.79" height="11.661" x="5.071" y="36.572" fill="#FB0" rx="4"/>
      <rect width="3.55" height="11.661" x="5.071" y="20.671" fill="#FB0" rx="1.775"/>
      <rect width="3.55" height="11.661" x="13.691" y="20.671" fill="#FB0" rx="1.775"/>
      <rect width="3.55" height="11.661" x="21.804" y="20.671" fill="#FB0" rx="1.775"/>
    </g>
    <g transform="translate(173.42 112.367)">
      <ellipse cx="8.113" cy="8.481" stroke="#FB0" stroke-width="3" rx="8.113" ry="8.481"/>
      <path fill="#FB0" d="M7.0990566,0.530035336 C7.0990566,0.530035336 11.9447874,0.490349541 13.4372215,2.05035955 C14.9296556,3.61036956 15.4061625,5.30030684 15.4061625,5.30030684 L7.0990566,10.0706714 L7.0990566,0.530035336 Z"/>
    </g>
  </g>
</svg>
