<svg xmlns="http://www.w3.org/2000/svg" width="172" height="75" viewBox="0 0 172 75">
  <g fill="none" fill-rule="evenodd">
    <g transform="translate(127)">
      <rect width="23" height="43" x="12" y="2" fill="#9B9B9B"/>
      <rect width="11.795" height="43.895" x="11.795" y="2.105" fill="#4A4A4A"/>
      <rect width="44.821" height="9" fill="#4A4A4A"/>
    </g>
    <path fill="#9B9B9B" d="M76,-37 L92.0029381,-37 C95.3150239,-37 98,-34.3167787 98,-31.0040147 L98,113 L80.9921405,113 C78.2350574,113 76,110.763174 76,108.009232 L76,-37 Z" transform="rotate(-90 87 38)"/>
    <g transform="matrix(1 0 0 -1 0 75)">
      <path fill="#9B9B9B" d="M12,2.08695652 L35,2.08695652 L35,46.9565217 L17.997932,46.9565217 C14.6853656,46.9565217 12,44.2674596 12,40.9517707 L12,2.08695652 Z"/>
      <path fill="#4A4A4A" d="M11.7948718,2.19679634 L23.5897436,2.19679634 L23.5897436,48 L16.7969593,48 C14.0343827,48 11.7948718,45.7598101 11.7948718,43.0001195 L11.7948718,2.19679634 Z"/>
      <rect width="44.821" height="9.391" fill="#4A4A4A"/>
    </g>
    <path fill="#4A4A4A" d="M81,-32 L92.7948718,-32 L92.7948718,118 L86.0020875,118 C83.2395109,118 81,115.763174 81,113.009232 L81,-32 Z" transform="rotate(-90 86.897 43)"/>
  </g>
</svg>
