<svg xmlns="http://www.w3.org/2000/svg" xmlns:xlink="http://www.w3.org/1999/xlink" width="49" height="35" viewBox="0 0 49 35">
  <defs>
    <rect id="author-small-a" width="25.384" height="24.336" x="4" y="4" rx="4"/>
  </defs>
  <g fill="none" fill-rule="evenodd">
    <g transform="translate(1 1)">
      <rect width="47" height="33" fill="#4A4A4A" rx="4"/>
      <use fill="#FFF" xlink:href="#author-small-a"/>
      <rect width="24.384" height="23.336" x="4.5" y="4.5" stroke="#979797" rx="4"/>
    </g>
    <g transform="translate(8 8)">
      <rect width="19" height="18" fill="#DA008C" rx="2"/>
      <g fill="#FFF" fill-rule="nonzero" transform="translate(3.8 1.5)">
        <path d="M10.5408844 13.640829C10.5307599 13.6429585 10.4833979 13.6529845 10.4064249 13.6692902 7.37079031 14.312487 6.81237439 14.4229275 6.74970727 14.4315233 6.60020554 14.4520259 6.48851972 14.4416425 6.40815433 14.3997824 6.35795225 14.3736373 6.33076055 14.3418964 6.32350242 14.3279223 6.3270263 14.3030984 6.35373149 14.2439067 6.37003599 14.2077668 6.38590657 14.1725907 6.40388097 14.1327513 6.41963322 14.090285 6.52410035 13.8084715 6.45100623 13.522601 6.22884429 13.3441865 6.0631827 13.2111762 5.84353218 13.1571917 5.57579654 13.1836943 5.41597301 13.1995337 2.6144526 13.7547513 1.07558408 14.0609534L.320251903 14.7631554C2.08176886 14.4116736 5.43766851 13.7460622 5.6142436 13.7258238 5.77197647 13.710171 5.89503599 13.7338601 5.97023391 13.7942176 6.01390104 13.8293005 6.00960138 13.8408964 5.99810934 13.8718912 5.98948374 13.8951606 5.97708443 13.9226269 5.96397509 13.9517098 5.91354948 14.063456 5.84449204 14.216487 5.86735779 14.4060466 5.89243253 14.6139326 6.0218955 14.7931088 6.22255917 14.8976425 6.33537578 14.956399 6.4648519 14.9855285 6.61499792 14.9855285 6.67427266 14.9855285 6.73676886 14.9809896 6.80271003 14.971943 6.92345536 14.9553886 8.16322837 14.6972798 10.4875792 14.2047824 10.5641183 14.1885699 10.6112173 14.1785751 10.6212893 14.1764767 10.7464131 14.1502383 10.8298422 14.0090363 10.8076339 13.8611036 10.7854256 13.713171 10.666074 13.6145596 10.5408844 13.640829zM2.39492042 10.9974249L.440208304 13.4145855C.224923183 13.6808083.0732782007 14.009829.000788927336 14.3680259L2.77632734 11.7876995C3.64521246 12.2431865 4.33927128 12.3882746 4.87119239 12.3882746 5.80571626 12.3882746 6.23952111 11.9402021 6.23952111 11.9402021 5.36954464 11.4050207 5.24557785 10.4062228 5.24557785 10.4062228 5.91189273 10.7392383 7.29987889 11.1317876 7.29987889 11.1317876 9.14315502 9.67744041 10.1064879 6.52860622 10.1064879 6.52860622 9.91563322 6.59062694 9.73312803 6.61646114 9.56114187 6.61646114 8.6960173 6.61646114 8.1016263 5.96159067 8.1016263 5.96159067L10.5097481 5.34161658C11.3104042 3.39963731 11.3869827 0 11.3869827 0L4.06528997 7.69831088C3.23612734 8.57011399 2.65311003 9.72161658 2.39492042 10.9974249z"/>
      </g>
    </g>
    <g fill-rule="nonzero" transform="translate(35 6)">
      <circle cx="4" cy="4" r="4" fill="#FD8469"/>
      <path fill="#324A5E" d="M4,7.03622047 C2.32440945,7.03622047 0.963779528,5.67559055 0.963779528,4 C0.963779528,2.32440945 2.32440945,0.963779528 4,0.963779528 C5.67559055,0.963779528 7.03622047,2.32440945 7.03622047,4 C7.03622047,5.67559055 5.67559055,7.03622047 4,7.03622047 Z"/>
      <path fill="#E6E9EE" d="M6.40629921,4.13858268 C6.40629921,4.09448819 6.41259843,4.04409449 6.41259843,4 C6.41259843,2.67086614 5.33543307,1.58740157 4,1.58740157 C2.67086614,1.58740157 1.58740157,2.66456693 1.58740157,4 C1.58740157,4.04409449 1.58740157,4.09448819 1.59370079,4.13858268 L6.40629921,4.13858268 Z"/>
      <path fill="#FF7058" d="M3.22519685,2.62047244 C3.21259843,2.6015748 3.19370079,2.59527559 3.17480315,2.60787402 C3.15590551,2.61417323 3.14330709,2.63937008 3.15590551,2.65826772 L3.81732283,4.2519685 C3.82362205,4.25826772 3.82362205,4.27086614 3.82992126,4.27716535 C3.88031496,4.35905512 3.98740157,4.38425197 4.06929134,4.33385827 C4.1511811,4.28346457 4.17637795,4.17637795 4.12598425,4.09448819 L3.22519685,2.62047244 Z"/>
      <circle cx="4" cy="4.139" r="1" fill="#FFD05B"/>
      <g fill="#ACB3BA" transform="translate(1.969 1.795)">
        <path d="M2.0746063.367322835L2.0746063.367322835C2.00729861.367322835 1.9496063.327165354 1.9496063.280314961L1.9496063.0996062992C1.9496063.0527559055 2.00729861.0125984252 2.0746063.0125984252L2.0746063.0125984252C2.14191399.0125984252 2.1996063.0527559055 2.1996063.0996062992L2.1996063.280314961C2.1996063.327165354 2.14191399.367322835 2.0746063.367322835zM3.34950787.904232283L3.34950787.904232283C3.31604331.870767717 3.31604331.817224409 3.34950787.783759843L3.47667323.656594488C3.5101378.623129921 3.5636811.623129921 3.59714567.656594488L3.59714567.656594488C3.63061024.690059055 3.63061024.743602362 3.59714567.777066929L3.46998031.904232283C3.42982283.93769685 3.37627953.93769685 3.34950787.904232283zM.489665354.662893701L.489665354.662893701C.523129921.629429134.576673228.629429134.610137795.662893701L.73730315.790059055C.770767717.823523622.770767717.877066929.73730315.910531496L.73730315.910531496C.703838583.943996063.650295276.943996063.616830709.910531496L.489665354.783366142C.456200787.749901575.456200787.696358268.489665354.662893701zM1.34085712.504393064L1.34085712.504393064C1.29838437.524471805 1.24175405.504393064 1.22759647.457542671L1.15680856.290219836C1.13557219.250062356 1.15680856.196519049 1.2063601.183133222L1.2063601.183133222C1.24883284.163054482 1.30546316.183133222 1.31962075.229983616L1.39040865.39730645C1.41164502.437463931 1.39040865.491007238 1.34085712.504393064zM3.75163716 1.51408546L3.75163716 1.51408546C3.73155842 1.47161272 3.75163716 1.4149824 3.79848755 1.40082481L3.96581039 1.33003691C4.00596787 1.30880054 4.05951117 1.33003691 4.072897 1.37958844L4.072897 1.37958844C4.09297574 1.42206119 4.072897 1.47869151 4.02604661 1.49284909L3.85872377 1.563637C3.81856629 1.58487337 3.76502299 1.563637 3.75163716 1.51408546zM2.75095041.504179939L2.75095041.504179939C2.70713443.484101199 2.68522645.437250805 2.69983177.397093325L2.7728584.22977049C2.79476638.18961301 2.84588502.16953427 2.889701.182920096L2.889701.182920096C2.93351697.202998837 2.95542496.24984923 2.94081963.290006711L2.86779301.457329545C2.85318768.504179939 2.79476638.524258679 2.75095041.504179939zM.00969174992 1.37457246L.00969174992 1.37457246C.0297704901 1.33075648.0766208838 1.30884849.116778364 1.32345382L.284101199 1.39648044C.324258679 1.41838843.344337419 1.46950707.330951592 1.51332304L.330951592 1.51332304C.310872852 1.55713902.264022459 1.579047.223864978 1.56444168L.0565421436 1.49141506C.0163846633 1.47680973-.00369407685 1.42569109.00969174992 1.37457246z"/>
      </g>
      <g fill="#2B3B4E" transform="translate(1.134 1.134)">
        <circle cx="2.876" cy=".174" r="1"/>
        <circle cx="2.876" cy="5.578" r="1"/>
        <circle cx="5.578" cy="2.876" r="1"/>
        <circle cx=".174" cy="2.876" r="1"/>
      </g>
    </g>
    <g fill-rule="nonzero" transform="translate(35 21)">
      <circle cx="4" cy="4" r="4" fill="#B8E986"/>
      <path fill="#324A5E" d="M4,7.03622047 C2.32440945,7.03622047 0.963779528,5.67559055 0.963779528,4 C0.963779528,2.32440945 2.32440945,0.963779528 4,0.963779528 C5.67559055,0.963779528 7.03622047,2.32440945 7.03622047,4 C7.03622047,5.67559055 5.67559055,7.03622047 4,7.03622047 Z"/>
      <path fill="#E6E9EE" d="M6.40629921,4.13858268 C6.40629921,4.09448819 6.41259843,4.04409449 6.41259843,4 C6.41259843,2.67086614 5.33543307,1.58740157 4,1.58740157 C2.67086614,1.58740157 1.58740157,2.66456693 1.58740157,4 C1.58740157,4.04409449 1.58740157,4.09448819 1.59370079,4.13858268 L6.40629921,4.13858268 Z"/>
      <path fill="#FF7058" d="M3.69578509,2.62047244 C3.68318666,2.6015748 3.66428902,2.59527559 3.64539138,2.60787402 C3.62649375,2.61417323 3.61389532,2.63937008 3.62649375,2.65826772 L4.28791107,4.2519685 C4.29421028,4.25826772 4.29421028,4.27086614 4.3005095,4.27716535 C4.3509032,4.35905512 4.45798981,4.38425197 4.53987957,4.33385827 C4.62176934,4.28346457 4.64696619,4.17637795 4.59657249,4.09448819 L3.69578509,2.62047244 Z" transform="rotate(45 4.122 3.48)"/>
      <circle cx="4" cy="4.139" r="1" fill="#FFD05B"/>
      <g fill="#ACB3BA" transform="translate(1.969 1.795)">
        <path d="M2.0746063.367322835L2.0746063.367322835C2.00729861.367322835 1.9496063.327165354 1.9496063.280314961L1.9496063.0996062992C1.9496063.0527559055 2.00729861.0125984252 2.0746063.0125984252L2.0746063.0125984252C2.14191399.0125984252 2.1996063.0527559055 2.1996063.0996062992L2.1996063.280314961C2.1996063.327165354 2.14191399.367322835 2.0746063.367322835zM3.34950787.904232283L3.34950787.904232283C3.31604331.870767717 3.31604331.817224409 3.34950787.783759843L3.47667323.656594488C3.5101378.623129921 3.5636811.623129921 3.59714567.656594488L3.59714567.656594488C3.63061024.690059055 3.63061024.743602362 3.59714567.777066929L3.46998031.904232283C3.42982283.93769685 3.37627953.93769685 3.34950787.904232283zM.489665354.662893701L.489665354.662893701C.523129921.629429134.576673228.629429134.610137795.662893701L.73730315.790059055C.770767717.823523622.770767717.877066929.73730315.910531496L.73730315.910531496C.703838583.943996063.650295276.943996063.616830709.910531496L.489665354.783366142C.456200787.749901575.456200787.696358268.489665354.662893701zM1.34085712.504393064L1.34085712.504393064C1.29838437.524471805 1.24175405.504393064 1.22759647.457542671L1.15680856.290219836C1.13557219.250062356 1.15680856.196519049 1.2063601.183133222L1.2063601.183133222C1.24883284.163054482 1.30546316.183133222 1.31962075.229983616L1.39040865.39730645C1.41164502.437463931 1.39040865.491007238 1.34085712.504393064zM3.75163716 1.51408546L3.75163716 1.51408546C3.73155842 1.47161272 3.75163716 1.4149824 3.79848755 1.40082481L3.96581039 1.33003691C4.00596787 1.30880054 4.05951117 1.33003691 4.072897 1.37958844L4.072897 1.37958844C4.09297574 1.42206119 4.072897 1.47869151 4.02604661 1.49284909L3.85872377 1.563637C3.81856629 1.58487337 3.76502299 1.563637 3.75163716 1.51408546zM2.75095041.504179939L2.75095041.504179939C2.70713443.484101199 2.68522645.437250805 2.69983177.397093325L2.7728584.22977049C2.79476638.18961301 2.84588502.16953427 2.889701.182920096L2.889701.182920096C2.93351697.202998837 2.95542496.24984923 2.94081963.290006711L2.86779301.457329545C2.85318768.504179939 2.79476638.524258679 2.75095041.504179939zM.00969174992 1.37457246L.00969174992 1.37457246C.0297704901 1.33075648.0766208838 1.30884849.116778364 1.32345382L.284101199 1.39648044C.324258679 1.41838843.344337419 1.46950707.330951592 1.51332304L.330951592 1.51332304C.310872852 1.55713902.264022459 1.579047.223864978 1.56444168L.0565421436 1.49141506C.0163846633 1.47680973-.00369407685 1.42569109.00969174992 1.37457246z"/>
      </g>
      <g fill="#2B3B4E" transform="translate(1.134 1.134)">
        <circle cx="2.876" cy=".174" r="1"/>
        <circle cx="2.876" cy="5.578" r="1"/>
        <circle cx="5.578" cy="2.876" r="1"/>
        <circle cx=".174" cy="2.876" r="1"/>
      </g>
    </g>
  </g>
</svg>
