<svg xmlns="http://www.w3.org/2000/svg" xmlns:xlink="http://www.w3.org/1999/xlink" width="49" height="35" viewBox="0 0 49 35">
  <defs>
    <rect id="relevance-small-a" width="23.632" height="24.046" rx="1"/>
  </defs>
  <g fill="none" fill-rule="evenodd">
    <rect width="47" height="33" fill="#4A4A4A" rx="2" transform="translate(1 1)"/>
    <g transform="translate(5 5)">
      <use fill="#FFF" xlink:href="#relevance-small-a"/>
      <rect width="22.632" height="23.046" x=".5" y=".5" stroke="#979797" rx="1"/>
      <g fill="#9B9B9B" transform="translate(6.219 4.56)">
        <rect width="7.463" height="1.244"/>
        <rect width="11.194" height="1.244" y="4.561"/>
        <rect width="9.121" height="1.244" y="9.121"/>
        <rect width="13.682" height="1.244" y="13.682"/>
      </g>
      <g fill="#9B9B9B" transform="translate(2 3)">
        <path d="M2.09174788.783147412L2.09174788 3.21887246 1.56541101 3.21887246 1.56541101 1.38236168 1.168634 1.46657558 1.0795616 1.14591497 1.63019094.783147412 2.09174788.783147412zM2.54682682 2.67310162L3.09907565 2.67310162 3.09907565 3.21887246 2.54682682 3.21887246 2.54682682 2.67310162zM2.53953908 7.34211446L2.53953908 7.77937893.897368075 7.77937893.897368075 7.42794785C.929758198 7.28867032.982661271 7.1655897 1.05607888 7.0587023 1.12949649 6.9518149 1.20777145 6.86274339 1.2909061 6.79148512 1.37404075 6.72022685 1.47930707 6.63925276 1.60670821 6.54856042 1.70171924 6.48162083 1.77540567 6.42682836 1.8277697 6.38418137 1.88013373 6.34153437 1.92331991 6.29402957 1.95732954 6.24166554 1.99133917 6.18930151 2.00834373 6.13288956 2.00834373 6.072428 2.00834373 6.01520545 1.99241882 5.96500151 1.96056854 5.92181468 1.92871825 5.87862785 1.88526215 5.84569838 1.83019894 5.8230253 1.77513574 5.80035221 1.71359543 5.78901584 1.64557617 5.78901584 1.55920251 5.78901584 1.47687885 5.81303815 1.39860272 5.8610835 1.32032659 5.90912885 1.25473757 5.97579752 1.20183371 6.06109151L.856880624 5.79549383C.943254285 5.65405696 1.05715784 5.54123306 1.19859471 5.45701874 1.34003158 5.37280442 1.4928027 5.3306979 1.65691265 5.3306979 1.81238524 5.3306979 1.95705895 5.36011848 2.09093813 5.41896054 2.2248173 5.4778026 2.33224293 5.56255548 2.41321824 5.67322173 2.49419354 5.78388798 2.53468059 5.91317662 2.53468059 6.06109151 2.53468059 6.18201463 2.51038836 6.28728095 2.46180318 6.37689363 2.41321799 6.4665063 2.35356708 6.54208212 2.28284864 6.60362335 2.21213021 6.66516459 2.11577104 6.7385811 1.99376825 6.82387508 1.90415557 6.88649599 1.83019924 6.94047872 1.77189701 6.98582489 1.71359479 7.03117106 1.6582625 7.08380422 1.60589847 7.14372595 1.55353443 7.20364767 1.51115799 7.26977652 1.47876787 7.34211446L2.53953908 7.34211446zM2.86505819 7.23360809L3.41730702 7.23360809 3.41730702 7.77937893 2.86505819 7.77937893 2.86505819 7.23360809zM2.46666167 11.2621095C2.53198175 11.3565806 2.5646413 11.4658957 2.5646413 11.5900578 2.5646413 11.7476897 2.524964 11.8864253 2.4456082 12.0062688 2.3662524 12.1261123 2.25531789 12.2184227 2.11280135 12.283203 1.97028481 12.3479832 1.80671715 12.3803728 1.62209345 12.3803728 1.46014283 12.3803728 1.30737171 12.3469036 1.1637755 12.279964 1.02017929 12.2130244.896558844 12.1212537.792910452 12.0046493L1.08765909 11.6418817C1.14596132 11.7174587 1.22180705 11.7776494 1.31519857 11.8224558 1.40859009 11.8672621 1.50602891 11.8896649 1.60751796 11.8896649 1.69281195 11.8896649 1.76811786 11.8761693 1.83343794 11.8491775 1.89875802 11.8221857 1.94923187 11.7833182 1.98486101 11.7325736 2.02049014 11.6818291 2.03830444 11.6229879 2.03830444 11.5560483 2.03830444 11.4945071 2.02076005 11.4410642 1.98567076 11.395718 1.95058146 11.3503719 1.90091735 11.3152831 1.83667694 11.2904507 1.77243653 11.2656182 1.69767045 11.2532022 1.61237646 11.2532022L1.4147977 11.2532022 1.4147977 10.8790982 1.61237646 10.8790982C1.71710452 10.8790982 1.80077775 10.8558856 1.86339865 10.8094598 1.92601956 10.7630339 1.95732954 10.7020334 1.95732954 10.6264565 1.95732954 10.5487202 1.92170094 10.4871799 1.85044267 10.4418337 1.7791844 10.3964875 1.68363497 10.3738148 1.56379152 10.3738148 1.46878049 10.3738148 1.3818683 10.3929786 1.30305233 10.431307 1.22423637 10.4696353 1.16215623 10.5217286 1.11681006 10.5875885L.809105432 10.2474939C.898718105 10.1330488 1.01019244 10.0439773 1.14353178 9.98027676 1.27687111 9.91657618 1.42343422 9.88472637 1.58322549 9.88472637 1.75921183 9.88472637 1.91522191 9.91360713 2.05126043 9.97136952 2.18729894 10.0291319 2.293375 10.1111856 2.36949179 10.2175332 2.44560858 10.3238808 2.4836664 10.4477711 2.4836664 10.589208 2.4836664 10.6885377 2.45829452 10.7778791 2.40754999 10.8572349 2.35680547 10.9365907 2.28662792 10.9994806 2.19701525 11.0459065 2.31146035 11.0955713 2.40134159 11.1676383 2.46666167 11.2621095zM2.88854091 11.7941146L3.44078974 11.7941146 3.44078974 12.3398854 2.88854091 12.3398854 2.88854091 11.7941146zM2.74197634 16.3303286L2.38730627 16.3303286 2.38730627 16.9003919 1.86096941 16.9003919 1.86096941 16.3303286.696550319 16.3303286.696550319 15.922215 1.91765184 14.4646668 2.38730627 14.4646668 2.38730627 15.8801081 2.74197634 15.8801081 2.74197634 16.3303286zM1.86096941 15.8801081L1.86096941 15.1918214 1.30062309 15.8801081 1.86096941 15.8801081zM3.02538849 16.354621L3.57763732 16.354621 3.57763732 16.9003919 3.02538849 16.9003919 3.02538849 16.354621z"/>
      </g>
    </g>
    <rect width="6" height="6" x="37" y="5" fill="#D8D8D8"/>
    <rect width="6" height="6" x="37" y="14" fill="#D8D8D8"/>
    <rect width="6" height="6" x="37" y="23" fill="#F6A623"/>
  </g>
</svg>
